<?xml version="1.0" encoding="UTF-8" standalone="no"?>
<!-- Created with Inkscape (http://www.inkscape.org/) -->

<svg
   xmlns:dc="http://purl.org/dc/elements/1.1/"
   xmlns:cc="http://creativecommons.org/ns#"
   xmlns:rdf="http://www.w3.org/1999/02/22-rdf-syntax-ns#"
   xmlns:svg="http://www.w3.org/2000/svg"
   xmlns="http://www.w3.org/2000/svg"
   xmlns:sodipodi="http://sodipodi.sourceforge.net/DTD/sodipodi-0.dtd"
   xmlns:inkscape="http://www.inkscape.org/namespaces/inkscape"
   width="744.09448819"
   height="1052.3622047"
   id="svg2"
   version="1.1"
   inkscape:version="0.47 r22583"
   sodipodi:docname="session-manager.png">
  <defs
     id="defs4">
    <inkscape:perspective
       sodipodi:type="inkscape:persp3d"
       inkscape:vp_x="0 : 526.18109 : 1"
       inkscape:vp_y="0 : 1000 : 0"
       inkscape:vp_z="744.09448 : 526.18109 : 1"
       inkscape:persp3d-origin="372.04724 : 350.78739 : 1"
       id="perspective10" />
    <inkscape:perspective
       id="perspective3675"
       inkscape:persp3d-origin="0.5 : 0.33333333 : 1"
       inkscape:vp_z="1 : 0.5 : 1"
       inkscape:vp_y="0 : 1000 : 0"
       inkscape:vp_x="0 : 0.5 : 1"
       sodipodi:type="inkscape:persp3d" />
    <inkscape:perspective
       id="perspective3722"
       inkscape:persp3d-origin="0.5 : 0.33333333 : 1"
       inkscape:vp_z="1 : 0.5 : 1"
       inkscape:vp_y="0 : 1000 : 0"
       inkscape:vp_x="0 : 0.5 : 1"
       sodipodi:type="inkscape:persp3d" />
    <inkscape:perspective
       id="perspective3751"
       inkscape:persp3d-origin="0.5 : 0.33333333 : 1"
       inkscape:vp_z="1 : 0.5 : 1"
       inkscape:vp_y="0 : 1000 : 0"
       inkscape:vp_x="0 : 0.5 : 1"
       sodipodi:type="inkscape:persp3d" />
    <inkscape:perspective
       id="perspective3776"
       inkscape:persp3d-origin="0.5 : 0.33333333 : 1"
       inkscape:vp_z="1 : 0.5 : 1"
       inkscape:vp_y="0 : 1000 : 0"
       inkscape:vp_x="0 : 0.5 : 1"
       sodipodi:type="inkscape:persp3d" />
    <inkscape:perspective
       id="perspective3805"
       inkscape:persp3d-origin="0.5 : 0.33333333 : 1"
       inkscape:vp_z="1 : 0.5 : 1"
       inkscape:vp_y="0 : 1000 : 0"
       inkscape:vp_x="0 : 0.5 : 1"
       sodipodi:type="inkscape:persp3d" />
    <inkscape:perspective
       id="perspective3842"
       inkscape:persp3d-origin="0.5 : 0.33333333 : 1"
       inkscape:vp_z="1 : 0.5 : 1"
       inkscape:vp_y="0 : 1000 : 0"
       inkscape:vp_x="0 : 0.5 : 1"
       sodipodi:type="inkscape:persp3d" />
    <inkscape:perspective
       id="perspective3867"
       inkscape:persp3d-origin="0.5 : 0.33333333 : 1"
       inkscape:vp_z="1 : 0.5 : 1"
       inkscape:vp_y="0 : 1000 : 0"
       inkscape:vp_x="0 : 0.5 : 1"
       sodipodi:type="inkscape:persp3d" />
  </defs>
  <sodipodi:namedview
     id="base"
     pagecolor="#ffffff"
     bordercolor="#666666"
     borderopacity="1.0"
     inkscape:pageopacity="0.0"
     inkscape:pageshadow="2"
     inkscape:zoom="1.3787868"
     inkscape:cx="310.78836"
     inkscape:cy="759.17902"
     inkscape:document-units="px"
     inkscape:current-layer="layer1"
     showgrid="false"
     inkscape:window-width="1357"
     inkscape:window-height="781"
     inkscape:window-x="325"
     inkscape:window-y="166"
     inkscape:window-maximized="0" />
  <metadata
     id="metadata7">
    <rdf:RDF>
      <cc:Work
         rdf:about="">
        <dc:format>image/svg+xml</dc:format>
        <dc:type
           rdf:resource="http://purl.org/dc/dcmitype/StillImage" />
        <dc:title></dc:title>
      </cc:Work>
    </rdf:RDF>
  </metadata>
  <g
     inkscape:label="Layer 1"
     inkscape:groupmode="layer"
     id="layer1">
    <text
       xml:space="preserve"
       style="font-size:40px;font-style:normal;font-variant:normal;font-weight:normal;font-stretch:normal;fill:#000000;fill-opacity:1;stroke:none;font-family:Shaynes_Handwriting;-inkscape-font-specification:Shaynes_Handwriting"
       x="6.1648378"
       y="386.19684"
       id="text3606"><tspan
         sodipodi:role="line"
         id="tspan3608"
         x="6.1648378"
         y="386.19684"
         style="font-size:56;font-weight:bold;-inkscape-font-specification:Andale Mono Bold">Jetty Server</tspan></text>
    <text
       xml:space="preserve"
       style="font-size:40px;font-style:normal;font-variant:normal;font-weight:normal;font-stretch:normal;fill:#000000;fill-opacity:1;stroke:none;font-family:Shaynes_Handwriting;-inkscape-font-specification:Shaynes_Handwriting"
       x="93.560501"
       y="447.48264"
       id="text3638"><tspan
         sodipodi:role="line"
         id="tspan3640"
         x="93.560501"
         y="447.48264"
         style="font-weight:bold;-inkscape-font-specification:Andale Mono Bold;font-size:48">session state</tspan></text>
    <text
       xml:space="preserve"
       style="font-size:40px;font-style:normal;font-variant:normal;font-weight:normal;font-stretch:normal;fill:#000000;fill-opacity:1;stroke:none;font-family:Shaynes_Handwriting;-inkscape-font-specification:Shaynes_Handwriting"
       x="388.85672"
       y="450.45624"
       id="text3606-2"><tspan
         sodipodi:role="line"
         x="388.85672"
         y="450.45624"
         style="font-size:56;font-weight:bold;-inkscape-font-specification:Andale Mono Bold"
         id="tspan3710">Distributed Cache</tspan></text>
    <path
       sodipodi:type="arc"
       style="fill:#000000;stroke-width:4;stroke-miterlimit:4;stroke-dasharray:none;fill-opacity:0"
       id="path3692"
       sodipodi:cx="155.93419"
       sodipodi:cy="459.99359"
       sodipodi:rx="40.615417"
       sodipodi:ry="38.620907"
       d="m 196.54961,459.99359 a 40.615417,38.620907 0 1 1 -81.23084,0 40.615417,38.620907 0 1 1 81.23084,0 z" />
    <rect
       style="fill:#000000;fill-opacity:0;stroke-width:4;stroke-miterlimit:4;stroke-dasharray:none"
       id="rect3694"
       width="95.736336"
       height="33.362663"
       x="107.70338"
       y="436.60349" />
    <path
       style="fill:none;stroke:#000000;stroke-width:1px;stroke-linecap:butt;stroke-linejoin:miter;stroke-opacity:1"
       d="m 80.142914,403.60344 c 0,3.87334 -0.11853,-0.46708 0.72528,5.43957 0.18882,1.32173 0.14314,2.67202 0.36264,3.98901 1.02001,6.12011 1.33926,3.39326 1.81319,9.79122 0.11608,1.56714 -0.29676,3.17113 0,4.71429 0.31795,1.65336 1.20879,3.14286 1.81318,4.71429 0.6044,1.57143 1.2088,3.14286 1.81319,4.71429 0.6044,1.20879 1.32335,2.3668 1.81319,3.62637 0.32471,0.83497 1.25909,5.44685 1.45055,6.16484 0.19699,0.7387 0.51525,1.44074 0.72528,2.17583 1.14354,4.0024 0.38226,2.04069 1.45055,6.52748 1.54621,6.49409 0.40286,1.55781 2.53846,7.25275 0.30899,0.82398 0.48352,1.69231 0.72528,2.53846 0.48351,1.69231 0.93295,3.39473 1.45055,5.07693 0.22483,0.7307 0.59959,1.42172 0.72527,2.17583 0.11924,0.7154 0,1.45055 0,2.17582 0,0.72528 0,1.45055 0,2.17583 0,0.48351 -0.0684,0.97189 0,1.45055 0.0541,0.37841 0.26993,0.71707 0.36264,1.08791 0.0293,0.11727 0,0.24176 0,0.36264 0,0.30367 -0.0689,1.53741 0,1.81319 0.0656,0.26222 0.29708,0.46305 0.36264,0.72527 0.0586,0.23454 0,0.48352 0,0.72528 0,0.72527 0,1.45055 0,2.17582 0,2.53847 0,5.07693 0,7.61539"
       id="path3706" />
    <path
       style="fill:none;stroke:#000000;stroke-width:1px;stroke-linecap:butt;stroke-linejoin:miter;stroke-opacity:1"
       d="m 84.131931,480.11998 c 0.72528,0.72528 1.45055,1.45055 2.17583,2.17583 0.24176,0.24176 0.52013,0.45176 0.72527,0.72527 0.16218,0.21624 0.17151,0.53415 0.36264,0.72528 0.75031,0.75031 -0.0293,-1.14657 0.72528,0.36264 0.054,0.10811 -0.0855,0.27716 0,0.36263 0.75031,0.75031 -0.0293,-1.14657 0.72527,0.36264 0,0.96704 -0.12088,-0.12088 0.36264,0.36264 0.75031,0.75031 -1.14658,-0.0293 0.36264,0.72527 0.21623,0.10812 0.55432,-0.17094 0.72527,0 0.0855,0.0855 -0.0855,0.27717 0,0.36264 0.0855,0.0855 0.25452,-0.0541 0.36264,0 0.61174,0.30587 0.11353,0.41941 0.72527,0.72528 0.10812,0.0541 0.27717,-0.0855 0.36264,0 0.0855,0.0855 0,0.24176 0,0.36264 0,0.19372 -0.0519,1.7094 0,1.81318 0.0764,0.15291 0.24176,0.24176 0.36264,0.36264 0.12088,0.12088 0.20974,0.28619 0.36264,0.36264 0.10811,0.0541 0.27716,-0.0855 0.36263,0 0.0855,0.0855 0,0.24176 0,0.36264 0.12088,0 0.27717,-0.0855 0.36264,0 0.0855,0.0855 -0.0855,0.27716 0,0.36263 0.0855,0.0855 0.25452,-0.0541 0.36264,0 0.1529,0.0765 0.20974,0.28619 0.36264,0.36264 0.19223,0.0961 0.53304,-0.0961 0.72527,0 0.1529,0.0765 0.2204,0.26781 0.36264,0.36264 0.2249,0.14993 0.50038,0.2127 0.72528,0.36264 0.12087,0.12088 0.24175,0.24176 0.36263,0.36263 0,0.12088 -0.0855,0.27717 0,0.36264 0.0855,0.0855 0.25452,-0.0541 0.36264,0 0.1529,0.0764 0.24176,0.24176 0.36264,0.36264 0.24176,0 0.49592,-0.0765 0.72527,0 0.007,0.002 0.71814,0.7229 0.72528,0.72528 0.22935,0.0764 0.50904,-0.10812 0.72527,0 0.10812,0.054 -0.0541,0.25452 0,0.36263 0.0765,0.1529 0.24176,0.48352 0.36264,0.36264 0.17095,-0.17095 -0.0474,-0.48821 0,-0.72527 0.075,-0.37484 0.28767,-0.71309 0.36264,-1.08792 0.0711,-0.35559 -0.088,-0.7361 0,-1.08791 0.18542,-0.74168 0.483519,-1.45055 0.725279,-2.17583 0.12087,-0.36263 0.17298,-0.75602 0.36263,-1.08791 0.29987,-0.52476 0.78805,-0.92579 1.08792,-1.45055 0.18965,-0.33189 0.22067,-0.733 0.36263,-1.08791 0.20077,-0.50193 0.55433,-0.93771 0.72528,-1.45055 0.10879,-0.32638 -0.10879,-0.76154 0,-1.08792 0.0541,-0.16217 0.28619,-0.20973 0.36264,-0.36263 0.0541,-0.10812 -0.0541,-0.25452 0,-0.36264 0.0765,-0.1529 0.28618,-0.20974 0.36263,-0.36264 0.0541,-0.10812 0,-0.24176 0,-0.36264 0,-0.24176 -0.0586,-0.49073 0,-0.72527 0.0656,-0.26223 0.29709,-0.46305 0.36264,-0.72528 0.003,-0.0121 -0.002,-1.08598 0,-1.08791 0.0855,-0.0855 0.27716,0.0855 0.36264,0 0.0855,-0.0855 -0.0541,-0.25452 0,-0.36264 0.0764,-0.1529 0.24176,-0.24176 0.36264,-0.36264 0.12088,-0.12087 0.20973,-0.28618 0.36263,-0.36263 0.10812,-0.0541 0.27717,0.0855 0.36264,0 0.0855,-0.0855 0,-0.24176 0,-0.36264 0,-0.12088 0,-0.24176 0,-0.36264 0,-0.12088 -0.0855,-0.27716 0,-0.36264 0.0855,-0.0855 0.36264,-0.12088 0.36264,0 0,0.12088 -0.24176,0 -0.36264,0"
       id="path3708" />
    <text
       xml:space="preserve"
       style="font-size:40px;font-style:normal;font-variant:normal;font-weight:normal;font-stretch:normal;fill:#000000;fill-opacity:1;stroke:none;font-family:Shaynes_Handwriting;-inkscape-font-specification:Shaynes_Handwriting"
       x="14.259479"
       y="516.31781"
       id="text3606-2-4"><tspan
         sodipodi:role="line"
         x="14.259479"
         y="516.31781"
         style="font-size:56;font-weight:bold;-inkscape-font-specification:Andale Mono Bold"
         id="tspan3710-0">Distributed Cache</tspan></text>
    <path
       style="fill:none;stroke:#000000;stroke-width:1.33031929px;stroke-linecap:butt;stroke-linejoin:miter;stroke-opacity:1"
       d="m 258.00052,503.52553 c 5.41718,0.0884 10.62326,-1.41587 15.97329,-1.80669 2.90976,-0.21256 5.87941,0.42078 8.75954,0 2.35973,-0.34475 4.33873,-1.91362 6.69848,-2.25836 2.88012,-0.42078 5.851,0.22495 8.75953,0 5.51199,-0.42634 11.65086,-2.0242 17.00383,-3.16173 2.91514,-0.61947 5.84951,-1.16897 8.75953,-1.8067 2.58676,-0.56687 5.11794,-1.33314 7.72902,-1.80669 2.37861,-0.43139 4.82535,-0.51563 7.21373,-0.90334 2.25321,-0.36576 4.45148,-0.96108 6.69848,-1.35503 2.04892,-0.35921 4.12213,-0.60223 6.1832,-0.90334 2.06107,-0.30112 4.10313,-0.72969 6.18322,-0.90335 1.53884,-0.12847 3.09159,0 4.63739,0 1.37406,0 2.7481,0 4.12215,0 0.81921,0 2.41522,0.11857 3.0916,0 0.7532,-0.13205 1.32693,-0.70534 2.06107,-0.90334 1.87171,-0.50485 3.76809,-0.93868 5.66794,-1.35504 0.16663,-0.0365 0.36799,0.0775 0.51526,0 0.73641,-0.38729 1.27173,-1.05848 2.06107,-1.35501 0.47361,-0.17793 1.03571,0.0639 1.54581,0 1.40209,-0.17559 2.72003,-0.72778 4.12214,-0.90334 0.51008,-0.0639 1.04054,0.0885 1.54579,0 0.37661,-0.066 0.67394,-0.32666 1.03054,-0.45169 0.50429,-0.17682 1.08007,-0.20671 1.5458,-0.45167 0.36422,-0.19156 1.61406,-1.41485 2.06107,-1.80669 0.17176,-0.15057 0.29801,-0.35646 0.51527,-0.45168 0.30724,-0.13466 0.72329,0.13466 1.03053,0 0.21725,-0.0952 0.28483,-0.38434 0.51527,-0.45166 0.23568,-0.0689 1.83179,0.1005 2.06107,0 0.4345,-0.19046 0.6419,-0.64785 1.03054,-0.90336 0.49541,-0.3257 1.05037,-0.57764 1.5458,-0.90335 0.19432,-0.12774 0.31316,-0.33357 0.51527,-0.45167 0.31954,-0.18675 0.65793,-0.37002 1.03052,-0.45167 0.33326,-0.073 0.68703,0 1.03054,0 0.17176,0 0.36164,0.0674 0.51526,0 0.21727,-0.0953 0.29802,-0.35646 0.51527,-0.45168 0.15363,-0.0674 0.39383,0.10649 0.51527,0 0.12149,-0.1065 -0.15362,-0.38435 0,-0.45168 0.30726,-0.13465 0.70465,0.0953 1.03054,0 0.23043,-0.0674 0.298,-0.35644 0.51526,-0.45166 0.15362,-0.0674 0.36165,0.0674 0.51527,0 1.1759,-0.51539 1.4195,-1.01701 2.57634,-1.35504 0.16294,-0.0475 0.34865,0.0365 0.51527,0 1.71115,-0.37498 1.67925,-0.69212 3.60686,-0.90334 0.68172,-0.0747 1.37405,0 2.06107,0 0.34352,0 0.69369,0.059 1.03054,0 1.58543,-0.27795 3.05197,-1.07706 4.6374,-1.35501 0.33684,-0.059 0.68702,0 1.03054,0 0.68703,0 1.37404,0 2.06107,0 0.34351,0 0.6917,0.0494 1.03054,0 5.64905,-0.82532 -2.11072,0.01 4.63739,-1.35504 1.34929,-0.27294 2.77875,-0.15727 4.12215,-0.45167 1.42366,-0.31198 2.74299,-0.91541 4.12214,-1.35502 0.51044,-0.1627 1.07422,-0.21545 1.54579,-0.45167 0.74563,-0.37349 1.24636,-1.11697 2.06107,-1.35503 0.81471,-0.23806 1.72925,0.12382 2.57634,0 0.23959,-0.035 0.28483,-0.38434 0.51527,-0.45167 0.67018,-0.19582 1.83867,0.12932 2.57633,0 1.3087,0.38558 2.03776,-0.6724 3.09161,-0.90334 2.06106,-0.45168 0.25763,0.22583 1.54579,0 0.69441,-0.12169 1.36255,-0.34962 2.06107,-0.45168 0.33884,-0.0494 0.69729,0.073 1.03054,0 0.37259,-0.0817 0.66619,-0.34521 1.03052,-0.45167 0.16295,-0.0476 0.34352,0 0.51528,0 0.51527,0 1.04591,0.1096 1.54579,0 0.23566,-0.0517 0.27964,-0.40003 0.51527,-0.45167 0.49989,-0.1096 1.03054,0 1.54581,0 0.3435,0 0.72328,0.13465 1.03054,0 0.15362,-0.0674 -0.12149,-0.34522 0,-0.45167 0.12148,-0.1065 0.39381,0.10648 0.51527,0 0.43788,-0.38385 0.54695,-1.01592 1.03052,-1.35503 0.42413,-0.29743 1.1113,-0.16601 1.54582,-0.45167 0.30723,-0.202 0.30222,-0.62324 0.51525,-0.90335 0.1347,-0.17717 0.40664,-0.26123 0.51527,-0.45168 0.0769,-0.13466 -0.12148,-0.34521 0,-0.45166 0.12148,-0.1065 0.39381,-0.1065 0.51527,0 0.12149,0.10648 -0.12148,0.3452 0,0.45166 0.12149,0.10649 0.34352,0 0.51527,0 0.17176,0 0.34352,0 0.51526,0 0.17175,0 0.36164,0.0674 0.51527,0 0.21725,-0.0953 0.29802,-0.35645 0.51527,-0.45166 0.32386,-0.14196 1.7372,0.14193 2.06107,0 0.21725,-0.0952 0.29801,-0.35646 0.51527,-0.45169 0.15363,-0.0674 0.39381,0.1065 0.51527,0 0.12149,-0.10649 -0.12149,-0.3452 0,-0.45167 0.12149,-0.10649 0.36165,0.0674 0.51525,0 0.21726,-0.0952 0.29802,-0.35646 0.51527,-0.45168 0.30726,-0.13465 0.78765,0.21292 1.03054,0 0.1215,-0.10649 -0.12148,-0.3452 0,-0.45166 0.1215,-0.10649 0.3435,0 0.51527,0 0.17175,0 0.3435,0 0.51527,0"
       id="path3739" />
    <path
       style="fill:none;stroke:#000000;stroke-width:1px;stroke-linecap:butt;stroke-linejoin:miter;stroke-opacity:1"
       d="m 453.65968,455.09799 c 0,-0.12088 -0.0855,-0.27714 0,-0.36264 0.11131,-0.11131 1.18138,0.0673 1.45056,0 2.36751,-0.59188 -1.37011,-0.19473 1.81318,-0.72528 0.35771,-0.0596 0.72528,0 1.08792,0 0.72527,0 1.45055,0 2.17582,0 0.12088,0 0.27714,-0.0855 0.36264,0 0.0855,0.0855 -0.0855,0.27714 0,0.36264 0.0855,0.0855 0.24176,0 0.36264,0 0.12088,0 0.24176,0 0.36264,0 0.72527,0 1.45055,0 2.17582,0 3.98901,0 7.97803,0 11.96704,0 l 0.72528,2.17583 c 0,2.65934 0,5.31868 0,7.97802 0,0.17099 0.0164,1.79676 0,1.81319 -0.0855,0.0855 -0.27716,-0.0855 -0.36264,0 -0.17095,0.17095 0.10812,0.50904 0,0.72528 -1.20272,1.20272 0.17095,-0.3419 -0.36264,0.72527 -0.7546,1.50921 0.025,-0.38767 -0.72527,0.36264 -0.0855,0.0855 0.0541,0.25452 0,0.36264 -0.0765,0.1529 -0.28619,0.20973 -0.36264,0.36264 -0.0541,0.10811 0.0855,0.27716 0,0.36263 -0.0855,0.0855 -0.27716,-0.0855 -0.36264,0 -0.0741,0.0741 0.0719,0.94413 0,1.08792 -0.0765,0.1529 -0.28618,0.20973 -0.36264,0.36263 -0.10811,0.21624 0.17095,0.55433 0,0.72528 -0.0855,0.0855 -0.27716,-0.0855 -0.36263,0 -0.18132,0.18132 0.18132,0.90659 0,1.08791 -0.0855,0.0855 -0.27717,-0.0855 -0.36264,0 -0.0164,0.0164 0,1.64221 0,1.81319"
       id="path3741" />
    <text
       xml:space="preserve"
       style="font-size:40px;font-style:normal;font-variant:normal;font-weight:normal;font-stretch:normal;fill:#000000;fill-opacity:1;stroke:none;font-family:Shaynes_Handwriting;-inkscape-font-specification:Shaynes_Handwriting"
       x="311.45105"
       y="510.69144"
       id="text3638-1"><tspan
         sodipodi:role="line"
         id="tspan3640-3"
         x="311.45105"
         y="510.69144"
         style="font-weight:bold;-inkscape-font-specification:Andale Mono Bold;font-size:48">replication</tspan></text>
    <text
       xml:space="preserve"
       style="font-size:40px;font-style:normal;font-variant:normal;font-weight:normal;font-stretch:normal;fill:#000000;fill-opacity:1;stroke:none;font-family:Shaynes_Handwriting;-inkscape-font-specification:Shaynes_Handwriting"
       x="401.1864"
       y="345.29129"
       id="text3606-6"><tspan
         sodipodi:role="line"
         id="tspan3608-8"
         x="401.1864"
         y="345.29129"
         style="font-size:56;font-weight:bold;-inkscape-font-specification:Andale Mono Bold">Jetty Server</tspan></text>
    <path
       style="fill:none;stroke:#000000;stroke-width:0.94337648px;stroke-linecap:butt;stroke-linejoin:miter;stroke-opacity:1"
       d="m 478.66298,363.32236 c 0.87337,1.51525 -0.0913,-0.39582 0.36731,1.59315 0.0537,0.23287 0.24487,0.42483 0.36731,0.63725 0,0.42484 -0.0693,0.85396 0,1.27452 0.0548,0.3325 0.30366,0.62459 0.36731,0.9559 0.0604,0.31429 0,0.63725 0,0.95588 0,0.31864 0,0.63726 0,0.95589 0,1.16831 0,2.33662 0,3.50493 0,3.08009 0,6.16018 0,9.24027 0,0.95588 -0.11536,1.91703 0,2.86767 0.13071,1.07717 0.58872,2.11058 0.73461,3.18629 0.10017,0.73838 0,1.48694 0,2.23041 0,1.0621 0,2.1242 0,3.1863 0,0.26977 -0.0658,1.10322 0,1.27452 0.10951,0.28499 0.57975,0.36857 0.73462,0.63726 0.0497,0.0862 0,1.77453 0,1.91177 0,2.3546 -0.10951,-1.20724 0.36731,1.27452 0.13951,0.72618 -0.16799,1.82044 0,2.54905 0.0537,0.23288 0.3009,0.40686 0.3673,0.63725 0.0593,0.20608 0,0.42485 0,0.63727 0,0.10621 -0.0548,0.22363 0,0.31862 0.0774,0.13435 0.28987,0.18429 0.36731,0.31863 0.0526,0.0912 0,1.42293 0,1.59315 0,0.1435 0.0559,0.85892 0,0.95589 -0.15487,0.2687 -0.54252,0.38731 -0.73461,0.63726 -0.15187,0.19761 -0.24488,0.42485 -0.36731,0.63726 -0.12244,0.21242 -0.28074,0.41196 -0.36731,0.63726 -0.0774,0.20152 0.10951,0.44727 0,0.63726 -0.0774,0.13435 -0.28988,0.18429 -0.36731,0.31863 -0.11931,0.20699 0.1165,1.39104 0,1.59315 -0.76432,1.32606 0.0253,-0.34062 -0.73461,0.31863 -0.19359,0.16793 -0.21545,0.43965 -0.36731,0.63726 -0.19209,0.24995 -0.57974,0.36857 -0.73462,0.63726 -0.14692,0.25491 0.14693,0.70098 0,0.95589 -0.0774,0.13434 -0.28986,0.18429 -0.3673,0.31863 -0.0483,0.0837 0,1.1079 0,1.27452 0,0.95589 0,1.91178 0,2.86767 0,0.12595 0.0784,1.45707 0,1.59315 -0.0775,0.13434 -0.28987,0.18428 -0.36731,0.31862 -0.0483,0.0838 0,1.1079 0,1.27452"
       id="path3793" />
    <path
       style="fill:none;stroke:#000000;stroke-width:1px;stroke-linecap:butt;stroke-linejoin:miter;stroke-opacity:1"
       d="m 467.80256,408.31773 c 0.70243,1.16854 0.11365,1.0446 0.36263,2.53847 0.0595,0.3568 1.01584,1.72309 1.08792,1.81319 0.15276,0.80488 1.02317,0.66054 1.45055,1.08791 0.0855,0.0855 -0.0541,0.25452 0,0.36264 0.1529,0.3058 0.57237,0.41947 0.72527,0.72527 0.0541,0.10812 -0.0541,0.25452 0,0.36264 0.0765,0.1529 0.28619,0.20974 0.36264,0.36264 0.0541,0.10812 -0.0541,0.25452 0,0.36264 0.2777,0.5554 0.64623,0.28358 1.08791,0.72527 0.0855,0.0855 -0.0855,0.27716 0,0.36264 0.0855,0.0855 0.27717,-0.0855 0.36264,0 0.0855,0.0855 -0.0855,0.27716 0,0.36264 0.17095,0.17094 0.50904,-0.10812 0.72528,0 1.50921,0.7546 -0.38768,-0.025 0.36263,0.72527 0.0855,0.0855 0.27717,-0.0855 0.36264,0 3.5e-4,3.5e-4 -5.5e-4,1.08627 0,1.08791 0.0541,0.16218 0.30858,0.20046 0.36264,0.36264 0.0764,0.22935 0,0.48352 0,0.72528 0,0.31126 -0.0707,1.96365 0,2.17582 0.44811,1.34434 0.36264,-0.44204 0.36264,0.72528 0,0.12088 0,0.24176 0,0.36264 0,0.12087 -0.10812,0.30857 0,0.36263 1.00399,0.502 0.87442,-0.70383 1.45055,-1.08791 0.41469,-0.27646 0.98216,-0.19231 1.45055,-0.36264 0.86516,-0.3146 1.67649,-0.76467 2.53846,-1.08791 1.07375,-0.40266 2.21313,-0.62827 3.26374,-1.08791 0.89285,-0.39063 1.607,-1.16395 2.53846,-1.45055 0.69321,-0.2133 1.45899,0.11028 2.17583,0 0.58128,-0.0894 4.04251,-1.18184 4.71429,-1.45055 0.50192,-0.20077 0.94862,-0.52451 1.45055,-0.72528 0.22447,-0.0898 0.55432,0.17095 0.72527,0 0.0855,-0.0855 -0.0855,-0.27716 0,-0.36264 0.48352,-0.48351 0.36264,0.6044 0.36264,-0.36263"
       id="path3795" />
    <text
       xml:space="preserve"
       style="font-size:40px;font-style:normal;font-variant:normal;font-weight:normal;font-stretch:normal;fill:#000000;fill-opacity:1;stroke:none;font-family:Shaynes_Handwriting;-inkscape-font-specification:Shaynes_Handwriting"
       x="182.87856"
       y="245.92859"
       id="text3606-63"><tspan
         sodipodi:role="line"
         id="tspan3608-3"
         x="182.87856"
         y="245.92859"
         style="font-size:56;font-weight:bold;-inkscape-font-specification:Andale Mono Bold">Load Balancer</tspan></text>
    <path
       style="fill:none;stroke:#000000;stroke-width:1px;stroke-linecap:butt;stroke-linejoin:miter;stroke-opacity:1"
       d="m 215.40676,263.98795 c -2.41759,1.93407 -5.00814,3.66983 -7.25275,5.80221 -2.60565,2.47536 -4.5547,5.60373 -7.25276,7.97802 -3.37593,2.97083 -7.19507,5.39919 -10.87913,7.97803 -3.36234,2.35364 -17.24329,11.47935 -21.03298,13.78023 -3.33216,2.0231 -6.85504,3.72517 -10.15385,5.80221 -9.51429,5.99047 -18.11958,13.25221 -26.83519,20.3077 -2.40636,1.94801 -5.06354,3.61299 -7.25275,5.80221 -1.47056,1.47055 -2.35837,3.42851 -3.62638,5.07692 -1.15125,1.49663 -2.29122,3.0165 -3.62637,4.35165 -1.09461,1.09461 -2.53177,1.8065 -3.62638,2.90111 -0.85475,0.85474 -1.19219,2.1985 -2.17583,2.9011 -0.81112,0.57937 -2.12273,0.10258 -2.9011,0.72527 -0.59698,0.47759 -0.26657,1.56422 -0.72527,2.17583 -0.64871,0.86494 -2.2524,0.58561 -2.9011,1.45055 -0.45871,0.6116 -0.33194,1.52026 -0.72528,2.17582 -0.35181,0.58635 -1.04027,0.90352 -1.45055,1.45055 -0.32435,0.43247 -0.34302,1.0683 -0.72528,1.45055 -0.88337,0.88338 -1.62041,0.33974 -2.17582,1.45056 0,1.93406 0.24176,-0.24176 -0.725277,0.72527 0,1.06717 0.170949,0.55433 -0.725275,1.45055"
       id="path3822" />
    <path
       style="fill:none;stroke:#000000;stroke-width:1px;stroke-linecap:butt;stroke-linejoin:miter;stroke-opacity:1"
       d="m 98.637438,335.06493 c 0,1.07951 0.108118,0.92574 -0.725275,2.17583 -0.189651,0.28447 -0.535625,0.4408 -0.725276,0.72527 -0.299864,0.4498 -0.483516,0.96704 -0.725275,1.45055 -0.241758,0.48352 -0.554326,0.93771 -0.725275,1.45055 -0.07645,0.22936 0.05863,0.49074 0,0.72528 -0.18542,0.74168 -0.539855,1.43414 -0.725275,2.17583 -0.117271,0.46908 0.152901,0.99184 0,1.45055 -0.170949,0.51284 -0.554327,0.9377 -0.725276,1.45055 -0.152901,0.4587 0.152902,0.99184 0,1.45055 -0.170949,0.51284 -0.554326,0.9377 -0.725275,1.45055 -0.144154,0.43246 0,3.64895 0,4.35165 0,0.24176 0.108118,0.50904 0,0.72527 -0.152901,0.30581 -0.572374,0.41948 -0.725275,0.72528 -0.108118,0.21623 0,0.48352 0,0.72527 0,0.24176 0,0.48352 0,0.72528 0,1.45055 0,2.9011 0,4.35165 0,0.24176 0.108117,0.50904 0,0.72528 -0.152902,0.3058 -1.049629,0.61715 -0.725276,0.72527 0.917409,0.30581 1.934068,0 2.901102,0 0.967033,0 1.934067,0 2.901101,0 1.45055,0 2.901097,0 4.351647,0 0.96704,0 1.93804,0.0876 2.90111,0 10.61064,-0.9646 -0.4522,-0.72527 10.15385,-0.72527 2.17583,0 4.35165,0 6.52748,0 0.48351,0 0.97642,0.0948 1.45055,0 0.74966,-0.14994 1.44073,-0.51525 2.17582,-0.72528 0.95845,-0.27384 1.92367,-0.52979 2.9011,-0.72527 0.23707,-0.0474 0.55433,0.17095 0.72528,0 0.17095,-0.17095 0,-0.48352 0,-0.72528"
       id="path3826" />
    <path
       style="fill:none;stroke:#000000;stroke-width:0.81008863px;stroke-linecap:butt;stroke-linejoin:miter;stroke-opacity:1"
       d="m 284.93822,257.3795 c 1.92279,0.43618 4.00084,-0.43618 5.92362,0 1.42847,0.32404 2.79998,1.35574 4.23116,1.63171 1.40338,0.2706 2.83802,-0.42415 4.23115,0 1.32164,0.40237 2.5244,1.71958 3.80804,2.44755 1.11577,0.63278 2.24181,1.21844 3.38492,1.63171 1.11762,0.40406 2.26992,0.38587 3.38493,0.81586 10.62534,4.09756 -2.29169,-0.56322 4.65427,3.26341 0.40683,0.22413 0.84623,0 1.26934,0 0.14104,0 0.29697,-0.12163 0.42312,0 0.1784,0.17199 0.24472,0.64385 0.42311,0.81586 0.39892,0.38458 0.84624,0.54389 1.26935,0.81584 0.42312,0.27196 0.84623,0.54391 1.26935,0.81586 0.42311,0.27194 0.88211,0.38918 1.26935,0.81585 0.61227,0.67463 1.08776,1.74797 1.69246,2.44756 0.12094,0.13992 0.29696,-0.12162 0.42311,0 0.1784,0.172 0.28208,0.5439 0.42312,0.81585 0.28208,0 0.57257,-0.13192 0.84623,0 0.61191,0.29498 1.10683,1.18002 1.69246,1.6317 0.4141,0.31939 0.84623,0.54391 1.26935,0.81586 0.42311,0.27196 0.832,0.6472 1.26934,0.81585 0.2766,0.10664 0.56416,0 0.84623,0 0.56416,0 1.12831,0 1.69246,0 0.28208,0 0.57863,-0.172 0.84624,0 0.18922,0.12162 0.23389,0.69424 0.42311,0.81586 0.2676,0.17199 0.57258,-0.13192 0.84623,0 0.30596,0.14748 0.56415,0.5439 0.84623,0.81585 0.28208,0.27195 0.59394,0.451 0.84623,0.81585 0.31914,0.46152 0.47585,1.34603 0.84623,1.63171 0.39285,0.303 0.86795,-0.25799 1.26935,0 0.1338,0.0859 -0.0997,0.62356 0,0.81586 0.0997,0.19229 0.28208,0 0.42311,0 0.28208,0 0.59394,-0.24325 0.84623,0 0.12616,0.12161 -0.12614,0.69422 0,0.81584 0.84624,0.81586 0.63468,-0.40792 1.26935,0 0.59838,0.3846 1.09409,1.24711 1.69246,1.63171 0.40377,0.25952 1.64701,-0.22588 2.11558,0 3.52181,1.69769 -0.51075,-0.0564 2.11558,1.63171 0.1338,0.0861 0.28208,0 0.42312,0 0.72121,0 0.75703,-0.086 1.69246,0.81585 0.1784,0.172 0.24471,0.64386 0.42311,0.81585 0.39892,0.3846 0.85524,0.49647 1.26935,0.81586 0.29282,0.22584 0.53698,0.69659 0.84623,0.81585 0.6915,0.26667 1.43144,-0.32979 2.11558,0 0.30595,0.14748 0.54027,0.66837 0.84623,0.81586 0.54731,0.26383 1.15725,-0.344 1.69246,0 0.18922,0.12162 0.24471,0.64385 0.42312,0.81584 0.25229,0.24325 0.59393,-0.24323 0.84623,0 0.3568,0.344 0.48942,1.28772 0.84623,1.63171 0.2523,0.24324 0.64677,-0.38459 0.84623,0 0.0997,0.1923 -0.0997,0.62356 0,0.81586 0.19946,0.3846 0.64677,-0.3846 0.84623,0 0.0997,0.1923 -0.0997,0.62356 0,0.81584 0.0997,0.1923 0.32338,-0.19228 0.42311,0 0.0997,0.1923 -0.0631,0.57262 0,0.81586 0.17841,0.68799 0.66783,0.94371 0.84623,1.63171 0.0631,0.24324 -0.0997,0.62356 0,0.81586 0.0997,0.19228 0.32339,-0.1923 0.42312,0 0.0997,0.19228 -0.0631,0.57261 0,0.81584 0.88045,3.39539 -0.0292,-0.87217 0.84623,0.81586 0.87544,1.68803 -1.33779,-0.066 0.42311,1.63171 0.42312,0.27195 0.84624,0.54389 1.26935,0.81584 0.14104,0.27196 0.24471,0.64387 0.42312,0.81586 0.12615,0.12161 0.28629,-0.0659 0.42311,0 0.43269,0.20858 0.85525,0.49646 1.26935,0.81585 0.29281,0.22584 0.54028,0.66837 0.84623,0.81586 0.54731,0.26383 1.18787,-0.48648 1.69246,0 0.12615,0.12162 -0.0997,0.62355 0,0.81584 0.11578,0.22324 1.46293,-0.22128 1.69246,0 0.1784,0.172 0.24472,0.64387 0.42312,0.81586 0.2523,0.24324 0.57863,-0.17199 0.84623,0 0.29919,0.1923 0.54028,0.66837 0.84623,0.81585 0.20614,0.0993 1.46873,-0.2157 1.69246,0 0.1784,0.17201 0.24472,0.64386 0.42312,0.81586 0.16776,0.16173 1.18285,-0.16679 1.26935,0 0.0997,0.1923 -0.0997,0.62356 0,0.81585 0.19946,0.38459 0.59393,-0.24324 0.84623,0 0.1784,0.172 0.24471,0.64386 0.42311,0.81585 0.12615,0.12163 0.28208,0 0.42312,0 0.28208,0 0.57257,-0.13191 0.84623,0 0.30595,0.14749 0.54027,0.66837 0.84623,0.81585 0.54731,0.26383 1.15725,-0.34399 1.69246,0 0.18922,0.12162 0.28208,0.54391 0.42312,0.81586 0.14104,0.27195 0.28207,0.54391 0.42311,0.81586"
       id="path3828" />
    <path
       style="fill:none;stroke:#000000;stroke-width:1px;stroke-linecap:butt;stroke-linejoin:miter;stroke-opacity:1"
       d="m 385.12117,295.17479 c 0.21624,0.43247 -0.21623,1.01808 0,1.45055 0.15291,0.30581 0.61716,0.40093 0.72528,0.72528 0.1529,0.4587 0,0.96703 0,1.45055 0,0.24176 -0.10812,0.50904 0,0.72527 0.1529,0.30581 0.57237,0.41948 0.72527,0.72528 0.21624,0.43247 -0.1529,0.99185 0,1.45055 0.17095,0.51285 0.55433,0.9377 0.72528,1.45055 0.0765,0.22935 -0.10812,0.50904 0,0.72528 0.1529,0.3058 0.48352,0.48351 0.72528,0.72527 0.24175,0.24176 0.41947,0.57238 0.72527,0.72528 0.21624,0.10811 0.55433,-0.17095 0.72528,0 0.34189,0.34189 -0.3419,1.10865 0,1.45055 0.17095,0.17095 0.55432,-0.17095 0.72527,0 0.17095,0.17095 -0.17095,0.55432 0,0.72527 0.17095,0.17095 0.55433,-0.17095 0.72528,0 0.17095,0.17095 -0.10812,0.50904 0,0.72528 0.3058,0.6116 1.14474,0.83894 1.45055,1.45055 0.10811,0.21623 0,0.48352 0,0.72527 0.24176,0.24176 0.57237,0.41948 0.72527,0.72528 0.21624,0.43247 -0.3419,1.10865 0,1.45055 0.17095,0.17095 0.55433,-0.17095 0.72528,0 0.17452,0.17452 -0.17453,2.72658 0,2.9011 0.17095,0.17095 0.72527,-0.24176 0.72527,0 0,0.24176 -0.50904,-0.10812 -0.72527,0 -0.18046,0.0902 -1.2701,1.36032 -1.45055,1.45055 -0.21624,0.10812 -0.48352,0 -0.72528,0 -0.24176,0.24176 -0.41947,0.57237 -0.72527,0.72528 -0.58022,0.29011 -1.59561,-0.29011 -2.17583,0 -0.3058,0.1529 -0.41947,0.57237 -0.72527,0.72527 -0.21624,0.10812 -0.48352,0 -0.72528,0 -0.24176,0 -0.48352,0 -0.72528,0 -0.72527,0 -1.45055,0 -2.17582,0 -2.41759,0 -4.83517,0 -7.25275,0 -3.30166,0 -0.0415,-0.3419 -2.17583,0.72528 -0.22051,0.11025 -2.40028,0 -2.9011,0 -2.65934,0 -5.31869,0 -7.97803,0"
       id="path3830" />
    <path
       style="fill:none;stroke:#000000;stroke-width:1px;stroke-linecap:butt;stroke-linejoin:miter;stroke-opacity:1"
       d="m 261.82438,487.37274 c -0.71933,1.35803 -2.64772,1.19717 -3.62638,2.17583 -0.17095,0.17095 0.10812,0.50904 0,0.72527 -0.1529,0.30581 -0.57237,0.41947 -0.72527,0.72528 -0.10812,0.21623 0.17095,0.55432 0,0.72527 -0.17095,0.17095 -0.55433,-0.17095 -0.72528,0 -0.17095,0.17095 0.10812,0.50904 0,0.72528 -0.1529,0.3058 -0.57237,0.41947 -0.72527,0.72527 -0.21624,0.43247 0.34189,1.10866 0,1.45055 -0.17095,0.17095 -0.55433,-0.17094 -0.72528,0 -0.17095,0.17095 0.17095,0.55433 0,0.72528 -0.17095,0.17095 -0.55433,-0.17095 -0.72527,0 -0.38226,0.38225 -0.55433,0.9377 -0.72528,1.45055 -0.0764,0.22935 0.17095,0.55433 0,0.72528 -0.17095,0.17094 -0.50904,-0.10812 -0.72528,0 -0.19256,0.0963 -2.07954,1.98325 -2.17582,2.17582 -0.10812,0.21624 0.10812,0.50904 0,0.72528 -1.50921,3.01842 0.0501,-0.77535 -1.45055,0.72527 -0.17095,0.17095 0.10812,0.50904 0,0.72528 -0.1529,0.3058 -0.57238,0.41947 -0.72528,0.72527 -0.10811,0.21624 0.17095,0.55433 0,0.72528 -0.17095,0.17095 -0.55432,-0.17095 -0.72527,0 -0.17095,0.17095 0,0.48351 0,0.72527 0,0.24176 -0.17095,0.55433 0,0.72528 0.17095,0.17095 0.48351,0 0.72527,0 0.48352,0.24176 1.15069,0.27548 1.45055,0.72527 0.26821,0.40231 -0.34189,1.10866 0,1.45055 0.72528,0.72528 1.45055,-0.36263 2.17583,0 2.40543,2.40544 -0.6838,-0.34189 1.45055,0.72528 0.3058,0.1529 0.41947,0.57237 0.72528,0.72527 0.21623,0.10812 0.50904,-0.10811 0.72527,0 0.3058,0.15291 0.41947,0.57238 0.72528,0.72528 0.21623,0.10812 0.50904,-0.10812 0.72527,0 0.3058,0.1529 0.41947,0.57237 0.72528,0.72528 0.21623,0.10811 0.49592,-0.0765 0.72527,0 0.51285,0.17094 0.93771,0.55432 1.45055,0.72527 0.22935,0.0764 0.50904,-0.10812 0.72528,0 0.3058,0.1529 0.41947,0.57237 0.72527,0.72528 0.43247,0.21623 0.99185,-0.15291 1.45055,0 0.51285,0.17094 0.96704,0.48351 1.45055,0.72527 0.48352,0.24176 1.0683,0.34302 1.45055,0.72528 0.17095,0.17095 -0.17094,0.55432 0,0.72527 0.71547,0.71547 1.45056,-1.48614 1.45056,0.72528"
       id="path3832" />
    <text
       xml:space="preserve"
       style="font-size:40px;font-style:normal;font-variant:normal;font-weight:normal;font-stretch:normal;fill:#000000;fill-opacity:1;stroke:none;font-family:Shaynes_Handwriting;-inkscape-font-specification:Shaynes_Handwriting"
       x="334.65988"
       y="393.55948"
       id="text3638-2"><tspan
         sodipodi:role="line"
         id="tspan3640-9"
         x="334.65988"
         y="393.55948"
         style="font-size:48px;font-weight:bold;-inkscape-font-specification:Andale Mono Bold">session state</tspan></text>
    <text
       xml:space="preserve"
       style="font-size:40px;font-style:normal;font-variant:normal;font-weight:normal;font-stretch:normal;fill:#000000;fill-opacity:1;stroke:none;font-family:Shaynes_Handwriting;-inkscape-font-specification:Shaynes_Handwriting"
       x="192.29788"
       y="125.87707"
       id="text3606-63-3"><tspan
         sodipodi:role="line"
         id="tspan3608-3-0"
         x="192.29788"
         y="125.87707"
         style="font-size:56;font-weight:bold;-inkscape-font-specification:Andale Mono Bold">Web Browser</tspan><tspan
         sodipodi:role="line"
         x="192.29788"
         y="185.87708"
         style="font-size:48px;font-weight:bold;-inkscape-font-specification:Andale Mono Bold"
         id="tspan3884" /></text>
    <path
       style="fill:none;stroke:#000000;stroke-width:1px;stroke-linecap:butt;stroke-linejoin:miter;stroke-opacity:1"
       d="m 255.2969,141.41643 c -0.0711,0.71824 0.14224,1.46464 0,2.17583 -0.14993,0.74966 -0.61716,1.419 -0.72528,2.17582 -0.13676,0.95732 0,1.93407 0,2.90111 0,0.72527 0,1.45055 0,2.17582 0,0.72528 0.11924,1.46042 0,2.17583 -0.12568,0.7541 -0.57534,1.42616 -0.72527,2.17582 -0.18965,0.94826 0,1.93407 0,2.9011 0,1.69231 0,3.38462 0,5.07693 0,0.72528 -0.14224,1.46464 0,2.17583 0.83339,4.16696 0.72527,-0.20816 0.72527,2.17582 0,0.24176 0.0764,0.49593 0,0.72528 -0.17095,0.51284 -0.55432,0.9377 -0.72527,1.45055 -0.0764,0.22935 0,0.48352 0,0.72527 0,1.2088 0,2.41759 0,3.62638 0,0.17235 0.0813,2.73854 0,2.9011 -0.60025,1.2005 -1.38561,0.19483 -0.72528,2.17583 0.10812,0.32435 0.61716,0.40092 0.72528,0.72527 0.1529,0.45871 0,0.96704 0,1.45055 0,1.20879 0,2.41759 0,3.62638 0,0.48352 -0.0948,0.97642 0,1.45055 0.14993,0.74966 0.53985,1.43414 0.72527,2.17583 0.0586,0.23454 0,0.48351 0,0.72527 0,0.48352 0,0.96703 0,1.45055 0,1.45055 0,2.9011 0,4.35165 0,0.72528 -0.32435,1.52712 0,2.17583 0.10812,0.21623 0.61716,-0.21624 0.72528,0 0.21623,0.43247 -0.1529,0.99184 0,1.45055 0.21623,0.64871 1.14475,0.83894 1.45055,1.45055 0.11025,0.22051 0,2.40028 0,2.9011 0,2.17583 0,4.35165 0,6.52748"
       id="path3886" />
    <path
       style="fill:none;stroke:#000000;stroke-width:1px;stroke-linecap:butt;stroke-linejoin:miter;stroke-opacity:1"
       d="m 237.16502,193.63625 c 0.48351,0.48352 1.07124,0.8816 1.45055,1.45055 0.1341,0.20116 -0.13411,0.52412 0,0.72528 0.3793,0.56895 0.96703,0.96703 1.45055,1.45055 0.72527,0.72527 1.45055,1.45055 2.17582,2.17582 0.24176,0.24176 0.53563,0.4408 0.72528,0.72528 0.29986,0.4498 0.42541,1.00075 0.72527,1.45055 1.10644,1.65965 0.57411,-0.45351 1.45055,2.17583 0.21759,0.65274 -0.21758,1.52307 0,2.17582 0.10812,0.32436 0.57238,0.41947 0.72528,0.72528 0.21623,0.43247 -0.3419,1.10865 0,1.45055 0.38225,0.38225 1.00075,0.42541 1.45055,0.72527 0.28448,0.18965 0.41947,0.57238 0.72528,0.72528 0.21623,0.10812 0.55432,-0.17095 0.72527,0 0.17095,0.17095 -0.21623,0.61716 0,0.72527 0.43247,0.21624 1.01808,-0.21623 1.45055,0 0.21624,0.10812 -0.10812,0.50904 0,0.72528 0.1529,0.3058 0.48352,0.48352 0.72528,0.72527 0.24175,0.24176 0.41947,0.57238 0.72527,0.72528 0.43247,0.21623 1.10865,-0.3419 1.45055,0 0.17095,0.17095 -0.17095,0.55433 0,0.72527 0.17095,0.17095 0.55433,-0.17094 0.72528,0 0.17095,0.17095 -0.17095,0.55433 0,0.72528 0.17095,0.17095 0.55432,-0.17095 0.72527,0 0.43345,0.43345 -0.78393,1.45055 0.72528,1.45055 0.24176,0 -0.17095,-0.55433 0,-0.72527 0.17095,-0.17095 0.48352,0 0.72527,0 0,-0.24176 -0.10811,-0.50904 0,-0.72528 1.50921,-3.01842 -0.0501,0.77535 1.45055,-0.72528 0.38226,-0.38225 0.34303,-1.06829 0.72528,-1.45055 0.38225,-0.38225 1.00075,-0.42541 1.45055,-0.72527 0.28448,-0.18965 0.48352,-0.48352 0.72528,-0.72528 0.24175,-0.24175 0.53562,-0.4408 0.72527,-0.72527 0.29986,-0.4498 0.42541,-1.00076 0.72528,-1.45055 0.3793,-0.56895 1.14474,-0.83895 1.45055,-1.45055 0.10811,-0.21624 -0.17095,-0.55433 0,-0.72528 0.17095,-0.17095 0.50904,0.10812 0.72527,0 0.61161,-0.3058 0.83895,-1.14475 1.45055,-1.45055 0.21624,-0.10812 0.50904,0.10812 0.72528,0 0.3058,-0.1529 0.41947,-0.57237 0.72527,-0.72527 1.2839,-0.64195 0.24784,1.0788 1.45055,-0.72528 0.29987,-0.4498 0.42541,-1.00075 0.72528,-1.45055 0.3793,-0.56895 1.14475,-0.83894 1.45055,-1.45055 0.21623,-0.43247 -0.3419,-1.10865 0,-1.45055 0.17095,-0.17095 0.55433,0.17095 0.72527,0 0.17095,-0.17095 -0.10811,-0.50904 0,-0.72528 0.30581,-0.6116 1.14475,-0.83894 1.45055,-1.45055 0.10812,-0.21623 -0.17094,-0.55432 0,-0.72527 0.17095,-0.17095 0.55433,0.17095 0.72528,0 0.3419,-0.3419 -0.3419,-1.10865 0,-1.45055 0.17095,-0.17095 0.52412,0.1341 0.72528,0 0.85342,-0.56896 1.45055,-1.45055 2.17582,-2.17583"
       id="path3888" />
  </g>
</svg>
