<?xml version="1.0" encoding="UTF-8" standalone="no"?>
<!-- Created with Inkscape (http://www.inkscape.org/) -->

<svg
   xmlns:dc="http://purl.org/dc/elements/1.1/"
   xmlns:cc="http://creativecommons.org/ns#"
   xmlns:rdf="http://www.w3.org/1999/02/22-rdf-syntax-ns#"
   xmlns:svg="http://www.w3.org/2000/svg"
   xmlns="http://www.w3.org/2000/svg"
   xmlns:sodipodi="http://sodipodi.sourceforge.net/DTD/sodipodi-0.dtd"
   xmlns:inkscape="http://www.inkscape.org/namespaces/inkscape"
   width="744.09448819"
   height="1052.3622047"
   id="svg2"
   version="1.1"
   inkscape:version="0.47 r22583"
   sodipodi:docname="New document 1">
  <defs
     id="defs4">
    <inkscape:perspective
       sodipodi:type="inkscape:persp3d"
       inkscape:vp_x="0 : 526.18109 : 1"
       inkscape:vp_y="0 : 1000 : 0"
       inkscape:vp_z="744.09448 : 526.18109 : 1"
       inkscape:persp3d-origin="372.04724 : 350.78739 : 1"
       id="perspective10" />
    <inkscape:perspective
       id="perspective3675"
       inkscape:persp3d-origin="0.5 : 0.33333333 : 1"
       inkscape:vp_z="1 : 0.5 : 1"
       inkscape:vp_y="0 : 1000 : 0"
       inkscape:vp_x="0 : 0.5 : 1"
       sodipodi:type="inkscape:persp3d" />
    <inkscape:perspective
       id="perspective3722"
       inkscape:persp3d-origin="0.5 : 0.33333333 : 1"
       inkscape:vp_z="1 : 0.5 : 1"
       inkscape:vp_y="0 : 1000 : 0"
       inkscape:vp_x="0 : 0.5 : 1"
       sodipodi:type="inkscape:persp3d" />
    <inkscape:perspective
       id="perspective3751"
       inkscape:persp3d-origin="0.5 : 0.33333333 : 1"
       inkscape:vp_z="1 : 0.5 : 1"
       inkscape:vp_y="0 : 1000 : 0"
       inkscape:vp_x="0 : 0.5 : 1"
       sodipodi:type="inkscape:persp3d" />
    <inkscape:perspective
       id="perspective3776"
       inkscape:persp3d-origin="0.5 : 0.33333333 : 1"
       inkscape:vp_z="1 : 0.5 : 1"
       inkscape:vp_y="0 : 1000 : 0"
       inkscape:vp_x="0 : 0.5 : 1"
       sodipodi:type="inkscape:persp3d" />
    <inkscape:perspective
       id="perspective3805"
       inkscape:persp3d-origin="0.5 : 0.33333333 : 1"
       inkscape:vp_z="1 : 0.5 : 1"
       inkscape:vp_y="0 : 1000 : 0"
       inkscape:vp_x="0 : 0.5 : 1"
       sodipodi:type="inkscape:persp3d" />
    <inkscape:perspective
       id="perspective3842"
       inkscape:persp3d-origin="0.5 : 0.33333333 : 1"
       inkscape:vp_z="1 : 0.5 : 1"
       inkscape:vp_y="0 : 1000 : 0"
       inkscape:vp_x="0 : 0.5 : 1"
       sodipodi:type="inkscape:persp3d" />
    <inkscape:perspective
       id="perspective3867"
       inkscape:persp3d-origin="0.5 : 0.33333333 : 1"
       inkscape:vp_z="1 : 0.5 : 1"
       inkscape:vp_y="0 : 1000 : 0"
       inkscape:vp_x="0 : 0.5 : 1"
       sodipodi:type="inkscape:persp3d" />
  </defs>
  <sodipodi:namedview
     id="base"
     pagecolor="#ffffff"
     bordercolor="#666666"
     borderopacity="1.0"
     inkscape:pageopacity="0.0"
     inkscape:pageshadow="2"
     inkscape:zoom="1.3787868"
     inkscape:cx="310.78836"
     inkscape:cy="639.33792"
     inkscape:document-units="px"
     inkscape:current-layer="layer1"
     showgrid="false"
     inkscape:window-width="1357"
     inkscape:window-height="781"
     inkscape:window-x="325"
     inkscape:window-y="166"
     inkscape:window-maximized="0" />
  <metadata
     id="metadata7">
    <rdf:RDF>
      <cc:Work
         rdf:about="">
        <dc:format>image/svg+xml</dc:format>
        <dc:type
           rdf:resource="http://purl.org/dc/dcmitype/StillImage" />
        <dc:title></dc:title>
      </cc:Work>
    </rdf:RDF>
  </metadata>
  <g
     inkscape:label="Layer 1"
     inkscape:groupmode="layer"
     id="layer1">
    <text
       xml:space="preserve"
       style="font-size:40px;font-style:normal;font-variant:normal;font-weight:normal;font-stretch:normal;fill:#000000;fill-opacity:1;stroke:none;font-family:Shaynes_Handwriting;-inkscape-font-specification:Shaynes_Handwriting"
       x="6.1648378"
       y="386.19684"
       id="text3606"><tspan
         sodipodi:role="line"
         id="tspan3608"
         x="6.1648378"
         y="386.19684"
         style="font-size:48px;font-weight:bold;-inkscape-font-specification:Andale Mono Bold">Jetty Server</tspan></text>
    <text
       xml:space="preserve"
       style="font-size:40px;font-style:normal;font-variant:normal;font-weight:normal;font-stretch:normal;fill:#000000;fill-opacity:1;stroke:none;font-family:Shaynes_Handwriting;-inkscape-font-specification:Shaynes_Handwriting"
       x="93.560501"
       y="447.48264"
       id="text3638"><tspan
         sodipodi:role="line"
         id="tspan3640"
         x="93.560501"
         y="447.48264">session state</tspan></text>
    <text
       xml:space="preserve"
       style="font-size:40px;font-style:normal;font-variant:normal;font-weight:normal;font-stretch:normal;fill:#000000;fill-opacity:1;stroke:none;font-family:Shaynes_Handwriting;-inkscape-font-specification:Shaynes_Handwriting"
       x="388.85672"
       y="450.45624"
       id="text3606-2"><tspan
         sodipodi:role="line"
         x="388.85672"
         y="450.45624"
         style="font-size:48px;font-weight:bold;-inkscape-font-specification:Andale Mono Bold"
         id="tspan3710">Distributed Cache</tspan></text>
    <path
       sodipodi:type="arc"
       style="fill:#000000;stroke-width:4;stroke-miterlimit:4;stroke-dasharray:none;fill-opacity:0"
       id="path3692"
       sodipodi:cx="155.93419"
       sodipodi:cy="459.99359"
       sodipodi:rx="40.615417"
       sodipodi:ry="38.620907"
       d="m 196.54961,459.99359 a 40.615417,38.620907 0 1 1 -81.23084,0 40.615417,38.620907 0 1 1 81.23084,0 z" />
    <rect
       style="fill:#000000;fill-opacity:0;stroke-width:4;stroke-miterlimit:4;stroke-dasharray:none"
       id="rect3694"
       width="95.736336"
       height="33.362663"
       x="107.70338"
       y="436.60349" />
    <path
       style="fill:none;stroke:#000000;stroke-width:1px;stroke-linecap:butt;stroke-linejoin:miter;stroke-opacity:1"
       d="m 80.142914,403.60344 c 0,3.87334 -0.11853,-0.46708 0.72528,5.43957 0.18882,1.32173 0.14314,2.67202 0.36264,3.98901 1.02001,6.12011 1.33926,3.39326 1.81319,9.79122 0.11608,1.56714 -0.29676,3.17113 0,4.71429 0.31795,1.65336 1.20879,3.14286 1.81318,4.71429 0.6044,1.57143 1.2088,3.14286 1.81319,4.71429 0.6044,1.20879 1.32335,2.3668 1.81319,3.62637 0.32471,0.83497 1.25909,5.44685 1.45055,6.16484 0.19699,0.7387 0.51525,1.44074 0.72528,2.17583 1.14354,4.0024 0.38226,2.04069 1.45055,6.52748 1.54621,6.49409 0.40286,1.55781 2.53846,7.25275 0.30899,0.82398 0.48352,1.69231 0.72528,2.53846 0.48351,1.69231 0.93295,3.39473 1.45055,5.07693 0.22483,0.7307 0.59959,1.42172 0.72527,2.17583 0.11924,0.7154 0,1.45055 0,2.17582 0,0.72528 0,1.45055 0,2.17583 0,0.48351 -0.0684,0.97189 0,1.45055 0.0541,0.37841 0.26993,0.71707 0.36264,1.08791 0.0293,0.11727 0,0.24176 0,0.36264 0,0.30367 -0.0689,1.53741 0,1.81319 0.0656,0.26222 0.29708,0.46305 0.36264,0.72527 0.0586,0.23454 0,0.48352 0,0.72528 0,0.72527 0,1.45055 0,2.17582 0,2.53847 0,5.07693 0,7.61539"
       id="path3706" />
    <path
       style="fill:none;stroke:#000000;stroke-width:1px;stroke-linecap:butt;stroke-linejoin:miter;stroke-opacity:1"
       d="m 84.131931,480.11998 c 0.72528,0.72528 1.45055,1.45055 2.17583,2.17583 0.24176,0.24176 0.52013,0.45176 0.72527,0.72527 0.16218,0.21624 0.17151,0.53415 0.36264,0.72528 0.75031,0.75031 -0.0293,-1.14657 0.72528,0.36264 0.054,0.10811 -0.0855,0.27716 0,0.36263 0.75031,0.75031 -0.0293,-1.14657 0.72527,0.36264 0,0.96704 -0.12088,-0.12088 0.36264,0.36264 0.75031,0.75031 -1.14658,-0.0293 0.36264,0.72527 0.21623,0.10812 0.55432,-0.17094 0.72527,0 0.0855,0.0855 -0.0855,0.27717 0,0.36264 0.0855,0.0855 0.25452,-0.0541 0.36264,0 0.61174,0.30587 0.11353,0.41941 0.72527,0.72528 0.10812,0.0541 0.27717,-0.0855 0.36264,0 0.0855,0.0855 0,0.24176 0,0.36264 0,0.19372 -0.0519,1.7094 0,1.81318 0.0764,0.15291 0.24176,0.24176 0.36264,0.36264 0.12088,0.12088 0.20974,0.28619 0.36264,0.36264 0.10811,0.0541 0.27716,-0.0855 0.36263,0 0.0855,0.0855 0,0.24176 0,0.36264 0.12088,0 0.27717,-0.0855 0.36264,0 0.0855,0.0855 -0.0855,0.27716 0,0.36263 0.0855,0.0855 0.25452,-0.0541 0.36264,0 0.1529,0.0765 0.20974,0.28619 0.36264,0.36264 0.19223,0.0961 0.53304,-0.0961 0.72527,0 0.1529,0.0765 0.2204,0.26781 0.36264,0.36264 0.2249,0.14993 0.50038,0.2127 0.72528,0.36264 0.12087,0.12088 0.24175,0.24176 0.36263,0.36263 0,0.12088 -0.0855,0.27717 0,0.36264 0.0855,0.0855 0.25452,-0.0541 0.36264,0 0.1529,0.0764 0.24176,0.24176 0.36264,0.36264 0.24176,0 0.49592,-0.0765 0.72527,0 0.007,0.002 0.71814,0.7229 0.72528,0.72528 0.22935,0.0764 0.50904,-0.10812 0.72527,0 0.10812,0.054 -0.0541,0.25452 0,0.36263 0.0765,0.1529 0.24176,0.48352 0.36264,0.36264 0.17095,-0.17095 -0.0474,-0.48821 0,-0.72527 0.075,-0.37484 0.28767,-0.71309 0.36264,-1.08792 0.0711,-0.35559 -0.088,-0.7361 0,-1.08791 0.18542,-0.74168 0.483519,-1.45055 0.725279,-2.17583 0.12087,-0.36263 0.17298,-0.75602 0.36263,-1.08791 0.29987,-0.52476 0.78805,-0.92579 1.08792,-1.45055 0.18965,-0.33189 0.22067,-0.733 0.36263,-1.08791 0.20077,-0.50193 0.55433,-0.93771 0.72528,-1.45055 0.10879,-0.32638 -0.10879,-0.76154 0,-1.08792 0.0541,-0.16217 0.28619,-0.20973 0.36264,-0.36263 0.0541,-0.10812 -0.0541,-0.25452 0,-0.36264 0.0765,-0.1529 0.28618,-0.20974 0.36263,-0.36264 0.0541,-0.10812 0,-0.24176 0,-0.36264 0,-0.24176 -0.0586,-0.49073 0,-0.72527 0.0656,-0.26223 0.29709,-0.46305 0.36264,-0.72528 0.003,-0.0121 -0.002,-1.08598 0,-1.08791 0.0855,-0.0855 0.27716,0.0855 0.36264,0 0.0855,-0.0855 -0.0541,-0.25452 0,-0.36264 0.0764,-0.1529 0.24176,-0.24176 0.36264,-0.36264 0.12088,-0.12087 0.20973,-0.28618 0.36263,-0.36263 0.10812,-0.0541 0.27717,0.0855 0.36264,0 0.0855,-0.0855 0,-0.24176 0,-0.36264 0,-0.12088 0,-0.24176 0,-0.36264 0,-0.12088 -0.0855,-0.27716 0,-0.36264 0.0855,-0.0855 0.36264,-0.12088 0.36264,0 0,0.12088 -0.24176,0 -0.36264,0"
       id="path3708" />
    <text
       xml:space="preserve"
       style="font-size:40px;font-style:normal;font-variant:normal;font-weight:normal;font-stretch:normal;fill:#000000;fill-opacity:1;stroke:none;font-family:Shaynes_Handwriting;-inkscape-font-specification:Shaynes_Handwriting"
       x="14.259479"
       y="516.31781"
       id="text3606-2-4"><tspan
         sodipodi:role="line"
         x="14.259479"
         y="516.31781"
         style="font-size:48px;font-weight:bold;-inkscape-font-specification:Andale Mono Bold"
         id="tspan3710-0">Distributed Cache</tspan></text>
    <path
       style="fill:none;stroke:#000000;stroke-width:1.47985101px;stroke-linecap:butt;stroke-linejoin:miter;stroke-opacity:1"
       d="m 222.5368,506.35163 c 6.31154,0.0939 12.37714,-1.50378 18.61044,-1.91887 3.39016,-0.22575 6.8501,0.44691 10.20573,0 2.74931,-0.36615 5.05505,-2.03243 7.80438,-2.39858 3.35563,-0.44691 6.81699,0.23892 10.20572,0 6.42201,-0.45281 13.57439,-2.14988 19.81112,-3.35804 3.39643,-0.65794 6.81526,-1.24156 10.20572,-1.91888 3.01382,-0.60207 5.9629,-1.41592 9.00506,-1.91887 2.77132,-0.45818 5.62201,-0.54765 8.40471,-0.95943 2.6252,-0.38847 5.1864,-1.02076 7.80438,-1.43917 2.38719,-0.38151 4.80269,-0.63962 7.20404,-0.95943 2.40134,-0.31981 4.78054,-0.775 7.20405,-0.95944 1.7929,-0.13644 3.60201,0 5.40302,0 1.60091,0 3.2018,0 4.80271,0 0.95446,0 2.81396,0.12593 3.60201,0 0.87755,-0.14025 1.546,-0.74913 2.40135,-0.95943 2.18073,-0.53619 4.3902,-0.99696 6.60371,-1.43917 0.19414,-0.0388 0.42874,0.0823 0.60033,0 0.85798,-0.41134 1.48169,-1.12421 2.40134,-1.43915 0.5518,-0.18897 1.20671,0.0679 1.80102,0 1.63358,-0.18649 3.16911,-0.77296 4.8027,-0.95943 0.5943,-0.0679 1.21233,0.094 1.801,0 0.43879,-0.0701 0.78521,-0.34694 1.20068,-0.47973 0.58755,-0.1878 1.25838,-0.21955 1.80101,-0.47972 0.42435,-0.20345 1.88053,-1.5027 2.40135,-1.91887 0.20011,-0.15991 0.34721,-0.37859 0.60034,-0.47972 0.35796,-0.14302 0.8427,0.14302 1.20066,0 0.25312,-0.10107 0.33186,-0.40821 0.60034,-0.47971 0.2746,-0.0732 2.13422,0.10675 2.40135,0 0.50624,-0.20228 0.74788,-0.68807 1.20068,-0.95945 0.5772,-0.34592 1.22379,-0.6135 1.80101,-0.95944 0.2264,-0.13567 0.36486,-0.35428 0.60034,-0.47971 0.3723,-0.19835 0.76656,-0.39299 1.20066,-0.47972 0.38828,-0.0775 0.80046,0 1.20068,0 0.20012,0 0.42135,0.0716 0.60033,0 0.25314,-0.1012 0.34722,-0.37859 0.60034,-0.47972 0.17899,-0.0716 0.45885,0.1131 0.60034,0 0.14154,-0.11311 -0.17899,-0.40821 0,-0.47972 0.35798,-0.14302 0.82098,0.10119 1.20068,0 0.26847,-0.0716 0.3472,-0.37858 0.60032,-0.47971 0.17899,-0.0716 0.42136,0.0716 0.60035,0 1.37003,-0.54739 1.65385,-1.08016 3.00168,-1.43917 0.18984,-0.0505 0.40621,0.0388 0.60034,0 1.99366,-0.39827 1.95649,-0.7351 4.20235,-0.95943 0.79427,-0.0794 1.6009,0 2.40135,0 0.40023,0 0.80822,0.0627 1.20068,0 1.84718,-0.29521 3.55584,-1.14394 5.40302,-1.43915 0.39246,-0.0627 0.80045,0 1.20068,0 0.80046,0 1.60089,0 2.40135,0 0.40022,0 0.8059,0.0525 1.20068,0 6.5817,-0.87656 -2.45919,0.0106 5.40302,-1.43917 1.57205,-0.28989 3.23751,-0.16704 4.80271,-0.47972 1.6587,-0.33135 3.19585,-0.97225 4.80269,-1.43915 0.59471,-0.17281 1.25157,-0.22883 1.801,-0.47972 0.86873,-0.39668 1.45213,-1.18632 2.40135,-1.43916 0.94922,-0.25284 2.01474,0.1315 3.00169,0 0.27914,-0.0372 0.33185,-0.40821 0.60034,-0.47972 0.78082,-0.20798 2.14223,0.13735 3.00167,0 1.52477,0.40952 2.37419,-0.71415 3.60203,-0.95943 2.40134,-0.47972 0.30017,0.23986 1.801,0 0.80906,-0.12924 1.5875,-0.37133 2.40135,-0.47972 0.39478,-0.0525 0.81241,0.0775 1.20068,0 0.4341,-0.0868 0.77617,-0.36665 1.20066,-0.47972 0.18985,-0.0505 0.40023,0 0.60035,0 0.60034,0 1.21859,0.11641 1.801,0 0.27456,-0.0549 0.3258,-0.42487 0.60034,-0.47971 0.58241,-0.11641 1.20068,0 1.80101,0 0.40022,0 0.8427,0.14301 1.20068,0 0.17899,-0.0716 -0.14154,-0.36666 0,-0.47972 0.14154,-0.11311 0.45883,0.1131 0.60034,0 0.51018,-0.40768 0.63726,-1.079 1.20066,-1.43916 0.49415,-0.3159 1.29477,-0.17632 1.80103,-0.47972 0.35796,-0.21454 0.35212,-0.66193 0.60032,-0.95944 0.15694,-0.18817 0.47378,-0.27745 0.60034,-0.47972 0.0896,-0.14302 -0.14154,-0.36665 0,-0.47971 0.14154,-0.11311 0.45883,-0.11311 0.60034,0 0.14155,0.1131 -0.14154,0.36664 0,0.47971 0.14155,0.1131 0.40023,0 0.60034,0 0.20012,0 0.40023,0 0.60033,0 0.20011,0 0.42135,0.0716 0.60034,0 0.25312,-0.1012 0.34722,-0.37858 0.60034,-0.47971 0.37733,-0.15077 2.02401,0.15075 2.40135,0 0.25312,-0.10107 0.34721,-0.37859 0.60034,-0.47973 0.17899,-0.0716 0.45883,0.11311 0.60034,0 0.14154,-0.1131 -0.14155,-0.36664 0,-0.47972 0.14154,-0.1131 0.42135,0.0716 0.60032,0 0.25312,-0.10106 0.34722,-0.37859 0.60034,-0.47972 0.35798,-0.14301 0.91768,0.22614 1.20068,0 0.14155,-0.1131 -0.14154,-0.36664 0,-0.47971 0.14155,-0.1131 0.40021,0 0.60033,0 0.20011,0 0.40022,0 0.60034,0"
       id="path3739" />
    <path
       style="fill:none;stroke:#000000;stroke-width:1px;stroke-linecap:butt;stroke-linejoin:miter;stroke-opacity:1"
       d="m 453.65968,455.09799 c 0,-0.12088 -0.0855,-0.27714 0,-0.36264 0.11131,-0.11131 1.18138,0.0673 1.45056,0 2.36751,-0.59188 -1.37011,-0.19473 1.81318,-0.72528 0.35771,-0.0596 0.72528,0 1.08792,0 0.72527,0 1.45055,0 2.17582,0 0.12088,0 0.27714,-0.0855 0.36264,0 0.0855,0.0855 -0.0855,0.27714 0,0.36264 0.0855,0.0855 0.24176,0 0.36264,0 0.12088,0 0.24176,0 0.36264,0 0.72527,0 1.45055,0 2.17582,0 3.98901,0 7.97803,0 11.96704,0 l 0.72528,2.17583 c 0,2.65934 0,5.31868 0,7.97802 0,0.17099 0.0164,1.79676 0,1.81319 -0.0855,0.0855 -0.27716,-0.0855 -0.36264,0 -0.17095,0.17095 0.10812,0.50904 0,0.72528 -1.20272,1.20272 0.17095,-0.3419 -0.36264,0.72527 -0.7546,1.50921 0.025,-0.38767 -0.72527,0.36264 -0.0855,0.0855 0.0541,0.25452 0,0.36264 -0.0765,0.1529 -0.28619,0.20973 -0.36264,0.36264 -0.0541,0.10811 0.0855,0.27716 0,0.36263 -0.0855,0.0855 -0.27716,-0.0855 -0.36264,0 -0.0741,0.0741 0.0719,0.94413 0,1.08792 -0.0765,0.1529 -0.28618,0.20973 -0.36264,0.36263 -0.10811,0.21624 0.17095,0.55433 0,0.72528 -0.0855,0.0855 -0.27716,-0.0855 -0.36263,0 -0.18132,0.18132 0.18132,0.90659 0,1.08791 -0.0855,0.0855 -0.27717,-0.0855 -0.36264,0 -0.0164,0.0164 0,1.64221 0,1.81319"
       id="path3741" />
    <text
       xml:space="preserve"
       style="font-size:40px;font-style:normal;font-variant:normal;font-weight:normal;font-stretch:normal;fill:#000000;fill-opacity:1;stroke:none;font-family:Shaynes_Handwriting;-inkscape-font-specification:Shaynes_Handwriting"
       x="311.45105"
       y="510.69144"
       id="text3638-1"><tspan
         sodipodi:role="line"
         id="tspan3640-3"
         x="311.45105"
         y="510.69144">replication</tspan></text>
    <text
       xml:space="preserve"
       style="font-size:40px;font-style:normal;font-variant:normal;font-weight:normal;font-stretch:normal;fill:#000000;fill-opacity:1;stroke:none;font-family:Shaynes_Handwriting;-inkscape-font-specification:Shaynes_Handwriting"
       x="401.1864"
       y="345.29129"
       id="text3606-6"><tspan
         sodipodi:role="line"
         id="tspan3608-8"
         x="401.1864"
         y="345.29129"
         style="font-size:48px;font-weight:bold;-inkscape-font-specification:Andale Mono Bold">Jetty Server</tspan></text>
    <path
       style="fill:none;stroke:#000000;stroke-width:1px;stroke-linecap:butt;stroke-linejoin:miter;stroke-opacity:1"
       d="m 478.68168,355.37264 c 0.86227,1.72453 -0.0901,-0.45049 0.36264,1.81319 0.053,0.26504 0.24176,0.48351 0.36264,0.72527 0,0.48352 -0.0684,0.9719 0,1.45055 0.0541,0.37842 0.2998,0.71086 0.36264,1.08792 0.0596,0.3577 0,0.72527 0,1.08791 0,0.36264 0,0.72527 0,1.08791 0,1.32967 0,2.65934 0,3.98902 0,3.50549 0,7.01099 0,10.51649 0,1.08791 -0.11389,2.1818 0,3.26374 0.12905,1.22595 0.58124,2.40209 0.72527,3.62637 0.0989,0.84036 0,1.69231 0,2.53847 0,1.20879 0,2.41758 0,3.62637 0,0.30703 -0.065,1.2556 0,1.45055 0.10812,0.32436 0.57238,0.41948 0.72528,0.72528 0.0491,0.0981 0,2.01962 0,2.17582 0,2.6798 -0.10812,-1.37398 0.36264,1.45055 0.13774,0.82647 -0.16585,2.07187 0,2.90111 0.053,0.26504 0.29708,0.46305 0.36263,0.72527 0.0586,0.23454 0,0.48352 0,0.72528 0,0.12088 -0.0541,0.25452 0,0.36263 0.0764,0.15291 0.28619,0.20974 0.36264,0.36264 0.0519,0.10379 0,1.61946 0,1.81319 0,0.16332 0.0552,0.97755 0,1.08791 -0.1529,0.30581 -0.53562,0.4408 -0.72527,0.72528 -0.14994,0.2249 -0.24176,0.48352 -0.36264,0.72527 -0.12088,0.24176 -0.27717,0.46886 -0.36264,0.72528 -0.0764,0.22935 0.10812,0.50904 0,0.72527 -0.0764,0.15291 -0.28619,0.20974 -0.36264,0.36264 -0.11779,0.23558 0.11502,1.58316 0,1.81319 -0.7546,1.50921 0.025,-0.38767 -0.72527,0.36264 -0.19113,0.19112 -0.21271,0.50037 -0.36264,0.72527 -0.18965,0.28448 -0.57237,0.41948 -0.72528,0.72528 -0.14505,0.29011 0.14506,0.7978 0,1.08791 -0.0764,0.1529 -0.28618,0.20974 -0.36263,0.36264 -0.0477,0.0953 0,1.26092 0,1.45055 0,1.08791 0,2.17583 0,3.26374 0,0.14335 0.0774,1.65831 0,1.81319 -0.0765,0.1529 -0.28619,0.20973 -0.36264,0.36263 -0.0477,0.0954 0,1.26092 0,1.45055"
       id="path3793" />
    <path
       style="fill:none;stroke:#000000;stroke-width:1px;stroke-linecap:butt;stroke-linejoin:miter;stroke-opacity:1"
       d="m 467.80256,408.31773 c 0.70243,1.16854 0.11365,1.0446 0.36263,2.53847 0.0595,0.3568 1.01584,1.72309 1.08792,1.81319 0.15276,0.80488 1.02317,0.66054 1.45055,1.08791 0.0855,0.0855 -0.0541,0.25452 0,0.36264 0.1529,0.3058 0.57237,0.41947 0.72527,0.72527 0.0541,0.10812 -0.0541,0.25452 0,0.36264 0.0765,0.1529 0.28619,0.20974 0.36264,0.36264 0.0541,0.10812 -0.0541,0.25452 0,0.36264 0.2777,0.5554 0.64623,0.28358 1.08791,0.72527 0.0855,0.0855 -0.0855,0.27716 0,0.36264 0.0855,0.0855 0.27717,-0.0855 0.36264,0 0.0855,0.0855 -0.0855,0.27716 0,0.36264 0.17095,0.17094 0.50904,-0.10812 0.72528,0 1.50921,0.7546 -0.38768,-0.025 0.36263,0.72527 0.0855,0.0855 0.27717,-0.0855 0.36264,0 3.5e-4,3.5e-4 -5.5e-4,1.08627 0,1.08791 0.0541,0.16218 0.30858,0.20046 0.36264,0.36264 0.0764,0.22935 0,0.48352 0,0.72528 0,0.31126 -0.0707,1.96365 0,2.17582 0.44811,1.34434 0.36264,-0.44204 0.36264,0.72528 0,0.12088 0,0.24176 0,0.36264 0,0.12087 -0.10812,0.30857 0,0.36263 1.00399,0.502 0.87442,-0.70383 1.45055,-1.08791 0.41469,-0.27646 0.98216,-0.19231 1.45055,-0.36264 0.86516,-0.3146 1.67649,-0.76467 2.53846,-1.08791 1.07375,-0.40266 2.21313,-0.62827 3.26374,-1.08791 0.89285,-0.39063 1.607,-1.16395 2.53846,-1.45055 0.69321,-0.2133 1.45899,0.11028 2.17583,0 0.58128,-0.0894 4.04251,-1.18184 4.71429,-1.45055 0.50192,-0.20077 0.94862,-0.52451 1.45055,-0.72528 0.22447,-0.0898 0.55432,0.17095 0.72527,0 0.0855,-0.0855 -0.0855,-0.27716 0,-0.36264 0.48352,-0.48351 0.36264,0.6044 0.36264,-0.36263"
       id="path3795" />
    <text
       xml:space="preserve"
       style="font-size:40px;font-style:normal;font-variant:normal;font-weight:normal;font-stretch:normal;fill:#000000;fill-opacity:1;stroke:none;font-family:Shaynes_Handwriting;-inkscape-font-specification:Shaynes_Handwriting"
       x="182.87856"
       y="245.92859"
       id="text3606-63"><tspan
         sodipodi:role="line"
         id="tspan3608-3"
         x="182.87856"
         y="245.92859"
         style="font-size:48px;font-weight:bold;-inkscape-font-specification:Andale Mono Bold">Load Balancer</tspan></text>
    <path
       style="fill:none;stroke:#000000;stroke-width:1px;stroke-linecap:butt;stroke-linejoin:miter;stroke-opacity:1"
       d="m 215.40676,263.98795 c -2.41759,1.93407 -5.00814,3.66983 -7.25275,5.80221 -2.60565,2.47536 -4.5547,5.60373 -7.25276,7.97802 -3.37593,2.97083 -7.19507,5.39919 -10.87913,7.97803 -3.36234,2.35364 -17.24329,11.47935 -21.03298,13.78023 -3.33216,2.0231 -6.85504,3.72517 -10.15385,5.80221 -9.51429,5.99047 -18.11958,13.25221 -26.83519,20.3077 -2.40636,1.94801 -5.06354,3.61299 -7.25275,5.80221 -1.47056,1.47055 -2.35837,3.42851 -3.62638,5.07692 -1.15125,1.49663 -2.29122,3.0165 -3.62637,4.35165 -1.09461,1.09461 -2.53177,1.8065 -3.62638,2.90111 -0.85475,0.85474 -1.19219,2.1985 -2.17583,2.9011 -0.81112,0.57937 -2.12273,0.10258 -2.9011,0.72527 -0.59698,0.47759 -0.26657,1.56422 -0.72527,2.17583 -0.64871,0.86494 -2.2524,0.58561 -2.9011,1.45055 -0.45871,0.6116 -0.33194,1.52026 -0.72528,2.17582 -0.35181,0.58635 -1.04027,0.90352 -1.45055,1.45055 -0.32435,0.43247 -0.34302,1.0683 -0.72528,1.45055 -0.88337,0.88338 -1.62041,0.33974 -2.17582,1.45056 0,1.93406 0.24176,-0.24176 -0.725277,0.72527 0,1.06717 0.170949,0.55433 -0.725275,1.45055"
       id="path3822" />
    <path
       style="fill:none;stroke:#000000;stroke-width:1px;stroke-linecap:butt;stroke-linejoin:miter;stroke-opacity:1"
       d="m 98.637438,335.06493 c 0,1.07951 0.108118,0.92574 -0.725275,2.17583 -0.189651,0.28447 -0.535625,0.4408 -0.725276,0.72527 -0.299864,0.4498 -0.483516,0.96704 -0.725275,1.45055 -0.241758,0.48352 -0.554326,0.93771 -0.725275,1.45055 -0.07645,0.22936 0.05863,0.49074 0,0.72528 -0.18542,0.74168 -0.539855,1.43414 -0.725275,2.17583 -0.117271,0.46908 0.152901,0.99184 0,1.45055 -0.170949,0.51284 -0.554327,0.9377 -0.725276,1.45055 -0.152901,0.4587 0.152902,0.99184 0,1.45055 -0.170949,0.51284 -0.554326,0.9377 -0.725275,1.45055 -0.144154,0.43246 0,3.64895 0,4.35165 0,0.24176 0.108118,0.50904 0,0.72527 -0.152901,0.30581 -0.572374,0.41948 -0.725275,0.72528 -0.108118,0.21623 0,0.48352 0,0.72527 0,0.24176 0,0.48352 0,0.72528 0,1.45055 0,2.9011 0,4.35165 0,0.24176 0.108117,0.50904 0,0.72528 -0.152902,0.3058 -1.049629,0.61715 -0.725276,0.72527 0.917409,0.30581 1.934068,0 2.901102,0 0.967033,0 1.934067,0 2.901101,0 1.45055,0 2.901097,0 4.351647,0 0.96704,0 1.93804,0.0876 2.90111,0 10.61064,-0.9646 -0.4522,-0.72527 10.15385,-0.72527 2.17583,0 4.35165,0 6.52748,0 0.48351,0 0.97642,0.0948 1.45055,0 0.74966,-0.14994 1.44073,-0.51525 2.17582,-0.72528 0.95845,-0.27384 1.92367,-0.52979 2.9011,-0.72527 0.23707,-0.0474 0.55433,0.17095 0.72528,0 0.17095,-0.17095 0,-0.48352 0,-0.72528"
       id="path3826" />
    <path
       style="fill:none;stroke:#000000;stroke-width:1px;stroke-linecap:butt;stroke-linejoin:miter;stroke-opacity:1"
       d="m 285.03318,257.46048 c 3.2959,0.38775 6.85796,-0.38776 10.15386,0 2.44857,0.28806 4.79953,1.20522 7.25275,1.45055 2.40559,0.24056 4.86475,-0.37706 7.25275,0 2.26546,0.3577 4.32716,1.52867 6.52748,2.17582 1.91258,0.56253 3.84276,1.08316 5.8022,1.45055 1.91574,0.3592 3.89094,0.34303 5.80221,0.72528 18.21322,3.64264 -3.92825,-0.50069 7.97802,2.9011 0.69737,0.19925 1.45055,0 2.17583,0 0.24176,0 0.50904,-0.10812 0.72528,0 0.3058,0.1529 0.41947,0.57237 0.72527,0.72528 0.6838,0.34189 1.45055,0.48351 2.17583,0.72527 0.72527,0.24176 1.45055,0.48352 2.17582,0.72528 0.72528,0.24175 1.51205,0.34597 2.17583,0.72527 1.04952,0.59973 1.86457,1.55391 2.9011,2.17583 0.20731,0.12438 0.50904,-0.10812 0.72527,0 0.30581,0.1529 0.48352,0.48351 0.72528,0.72527 0.48352,0 0.98147,-0.11727 1.45055,0 1.0489,0.26223 1.89725,1.04901 2.9011,1.45055 0.70983,0.28393 1.45055,0.48352 2.17583,0.72528 0.72527,0.24176 1.42616,0.57534 2.17582,0.72527 0.47413,0.0948 0.96704,0 1.45055,0 0.96704,0 1.93407,0 2.9011,0 0.48352,0 0.99185,-0.1529 1.45056,0 0.32435,0.10812 0.40092,0.61716 0.72527,0.72528 0.4587,0.1529 0.98147,-0.11727 1.45055,0 0.52445,0.13111 0.96703,0.48352 1.45055,0.72527 0.48352,0.24176 1.01808,0.40093 1.45055,0.72528 0.54704,0.41028 0.81566,1.19659 1.45055,1.45055 0.6734,0.26936 1.48777,-0.22935 2.17583,0 0.22935,0.0764 -0.17095,0.55433 0,0.72528 0.17095,0.17094 0.48352,0 0.72527,0 0.48352,0 1.01808,-0.21624 1.45055,0 0.21624,0.10811 -0.21623,0.61715 0,0.72527 1.45056,0.72528 1.08792,-0.36264 2.17583,0 1.02569,0.3419 1.87541,1.10865 2.9011,1.45055 0.69211,0.23071 2.82318,-0.2008 3.62638,0 6.03684,1.50921 -0.87549,-0.0501 3.62637,1.45055 0.22936,0.0765 0.48352,0 0.72528,0 1.23625,0 1.29765,-0.0764 2.9011,0.72528 0.3058,0.1529 0.41947,0.57237 0.72528,0.72527 0.68379,0.3419 1.46599,0.44135 2.17582,0.72528 0.50193,0.20077 0.92046,0.61925 1.45055,0.72527 1.18532,0.23707 2.45368,-0.29317 3.62638,0 0.52445,0.13111 0.9261,0.59417 1.45055,0.72528 0.93816,0.23454 1.98369,-0.3058 2.9011,0 0.32435,0.10812 0.41947,0.57237 0.72528,0.72527 0.43247,0.21624 1.01808,-0.21623 1.45055,0 0.6116,0.30581 0.83894,1.14475 1.45055,1.45055 0.43247,0.21624 1.10865,-0.34189 1.45055,0 0.17095,0.17095 -0.17095,0.55433 0,0.72528 0.3419,0.3419 1.10865,-0.3419 1.45055,0 0.17095,0.17095 -0.17095,0.55433 0,0.72527 0.17095,0.17095 0.55432,-0.17094 0.72527,0 0.17095,0.17095 -0.10811,0.50904 0,0.72528 0.30581,0.61161 1.14475,0.83894 1.45055,1.45055 0.10812,0.21624 -0.17095,0.55433 0,0.72528 0.17095,0.17094 0.55433,-0.17095 0.72528,0 0.17095,0.17094 -0.10812,0.50904 0,0.72527 1.50921,3.01842 -0.0501,-0.77534 1.45055,0.72528 1.50062,1.50062 -2.29315,-0.0587 0.72527,1.45055 0.72528,0.24176 1.45056,0.48351 2.17583,0.72527 0.24176,0.24176 0.41947,0.57238 0.72528,0.72528 0.21623,0.10811 0.49073,-0.0586 0.72527,0 0.74168,0.18542 1.466,0.44134 2.17583,0.72527 0.50192,0.20077 0.9261,0.59417 1.45055,0.72528 0.93816,0.23454 2.03616,-0.43247 2.9011,0 0.21623,0.10812 -0.17095,0.55432 0,0.72527 0.19845,0.19845 2.50765,-0.19672 2.9011,0 0.3058,0.1529 0.41947,0.57238 0.72528,0.72528 0.43247,0.21623 0.99184,-0.1529 1.45055,0 0.51284,0.17095 0.9261,0.59416 1.45055,0.72527 0.35334,0.0883 2.51759,-0.19175 2.9011,0 0.3058,0.15291 0.41947,0.57238 0.72527,0.72528 0.28757,0.14378 2.02756,-0.14827 2.17583,0 0.17095,0.17095 -0.17095,0.55433 0,0.72527 0.3419,0.3419 1.01808,-0.21623 1.45055,0 0.3058,0.15291 0.41947,0.57238 0.72527,0.72528 0.21624,0.10812 0.48352,0 0.72528,0 0.48352,0 0.98147,-0.11727 1.45055,0 0.52445,0.13111 0.9261,0.59416 1.45055,0.72527 0.93816,0.23454 1.98369,-0.3058 2.9011,0 0.32435,0.10812 0.48352,0.48352 0.72528,0.72528 0.24176,0.24176 0.48351,0.48352 0.72527,0.72528"
       id="path3828" />
    <path
       style="fill:none;stroke:#000000;stroke-width:1px;stroke-linecap:butt;stroke-linejoin:miter;stroke-opacity:1"
       d="m 440.24209,285.74621 c 0.21624,0.43247 -0.21623,1.01808 0,1.45055 0.15291,0.30581 0.61716,0.40093 0.72528,0.72528 0.1529,0.4587 0,0.96703 0,1.45055 0,0.24176 -0.10812,0.50904 0,0.72527 0.1529,0.30581 0.57237,0.41948 0.72527,0.72528 0.21624,0.43247 -0.1529,0.99185 0,1.45055 0.17095,0.51285 0.55433,0.9377 0.72528,1.45055 0.0765,0.22935 -0.10812,0.50904 0,0.72528 0.1529,0.3058 0.48352,0.48351 0.72528,0.72527 0.24175,0.24176 0.41947,0.57238 0.72527,0.72528 0.21624,0.10811 0.55433,-0.17095 0.72528,0 0.34189,0.34189 -0.3419,1.10865 0,1.45055 0.17095,0.17095 0.55432,-0.17095 0.72527,0 0.17095,0.17095 -0.17095,0.55432 0,0.72527 0.17095,0.17095 0.55433,-0.17095 0.72528,0 0.17095,0.17095 -0.10812,0.50904 0,0.72528 0.3058,0.6116 1.14474,0.83894 1.45055,1.45055 0.10811,0.21623 0,0.48352 0,0.72527 0.24176,0.24176 0.57237,0.41948 0.72527,0.72528 0.21624,0.43247 -0.3419,1.10865 0,1.45055 0.17095,0.17095 0.55433,-0.17095 0.72528,0 0.17452,0.17452 -0.17453,2.72658 0,2.9011 0.17095,0.17095 0.72527,-0.24176 0.72527,0 0,0.24176 -0.50904,-0.10812 -0.72527,0 -0.18046,0.0902 -1.2701,1.36032 -1.45055,1.45055 -0.21624,0.10812 -0.48352,0 -0.72528,0 -0.24176,0.24176 -0.41947,0.57237 -0.72527,0.72528 -0.58022,0.29011 -1.59561,-0.29011 -2.17583,0 -0.3058,0.1529 -0.41947,0.57237 -0.72527,0.72527 -0.21624,0.10812 -0.48352,0 -0.72528,0 -0.24176,0 -0.48352,0 -0.72528,0 -0.72527,0 -1.45055,0 -2.17582,0 -2.41759,0 -4.83517,0 -7.25275,0 -3.30166,0 -0.0415,-0.3419 -2.17583,0.72528 -0.22051,0.11025 -2.40028,0 -2.9011,0 -2.65934,0 -5.31869,0 -7.97803,0"
       id="path3830" />
    <path
       style="fill:none;stroke:#000000;stroke-width:1px;stroke-linecap:butt;stroke-linejoin:miter;stroke-opacity:1"
       d="m 229.18699,490.27384 c -0.71933,1.35803 -2.64772,1.19717 -3.62638,2.17583 -0.17095,0.17095 0.10812,0.50904 0,0.72527 -0.1529,0.30581 -0.57237,0.41947 -0.72527,0.72528 -0.10812,0.21623 0.17095,0.55432 0,0.72527 -0.17095,0.17095 -0.55433,-0.17095 -0.72528,0 -0.17095,0.17095 0.10812,0.50904 0,0.72528 -0.1529,0.3058 -0.57237,0.41947 -0.72527,0.72527 -0.21624,0.43247 0.34189,1.10866 0,1.45055 -0.17095,0.17095 -0.55433,-0.17094 -0.72528,0 -0.17095,0.17095 0.17095,0.55433 0,0.72528 -0.17095,0.17095 -0.55433,-0.17095 -0.72527,0 -0.38226,0.38225 -0.55433,0.9377 -0.72528,1.45055 -0.0764,0.22935 0.17095,0.55433 0,0.72528 -0.17095,0.17094 -0.50904,-0.10812 -0.72528,0 -0.19256,0.0963 -2.07954,1.98325 -2.17582,2.17582 -0.10812,0.21624 0.10812,0.50904 0,0.72528 -1.50921,3.01842 0.0501,-0.77535 -1.45055,0.72527 -0.17095,0.17095 0.10812,0.50904 0,0.72528 -0.1529,0.3058 -0.57238,0.41947 -0.72528,0.72527 -0.10811,0.21624 0.17095,0.55433 0,0.72528 -0.17095,0.17095 -0.55432,-0.17095 -0.72527,0 -0.17095,0.17095 0,0.48351 0,0.72527 0,0.24176 -0.17095,0.55433 0,0.72528 0.17095,0.17095 0.48351,0 0.72527,0 0.48352,0.24176 1.15069,0.27548 1.45055,0.72527 0.26821,0.40231 -0.34189,1.10866 0,1.45055 0.72528,0.72528 1.45055,-0.36263 2.17583,0 2.40543,2.40544 -0.6838,-0.34189 1.45055,0.72528 0.3058,0.1529 0.41947,0.57237 0.72528,0.72527 0.21623,0.10812 0.50904,-0.10811 0.72527,0 0.3058,0.15291 0.41947,0.57238 0.72528,0.72528 0.21623,0.10812 0.50904,-0.10812 0.72527,0 0.3058,0.1529 0.41947,0.57237 0.72528,0.72528 0.21623,0.10811 0.49592,-0.0765 0.72527,0 0.51285,0.17094 0.93771,0.55432 1.45055,0.72527 0.22935,0.0764 0.50904,-0.10812 0.72528,0 0.3058,0.1529 0.41947,0.57237 0.72527,0.72528 0.43247,0.21623 0.99185,-0.15291 1.45055,0 0.51285,0.17094 0.96704,0.48351 1.45055,0.72527 0.48352,0.24176 1.0683,0.34302 1.45055,0.72528 0.17095,0.17095 -0.17094,0.55432 0,0.72527 0.71547,0.71547 1.45056,-1.48614 1.45056,0.72528"
       id="path3832" />
    <text
       xml:space="preserve"
       style="font-size:40px;font-style:normal;font-variant:normal;font-weight:normal;font-stretch:normal;fill:#000000;fill-opacity:1;stroke:none;font-family:Shaynes_Handwriting;-inkscape-font-specification:Shaynes_Handwriting"
       x="482.61603"
       y="392.10892"
       id="text3638-2"><tspan
         sodipodi:role="line"
         id="tspan3640-9"
         x="482.61603"
         y="392.10892">session state</tspan></text>
    <text
       xml:space="preserve"
       style="font-size:40px;font-style:normal;font-variant:normal;font-weight:normal;font-stretch:normal;fill:#000000;fill-opacity:1;stroke:none;font-family:Shaynes_Handwriting;-inkscape-font-specification:Shaynes_Handwriting"
       x="192.29788"
       y="125.87707"
       id="text3606-63-3"><tspan
         sodipodi:role="line"
         id="tspan3608-3-0"
         x="192.29788"
         y="125.87707"
         style="font-size:48px;font-weight:bold;-inkscape-font-specification:Andale Mono Bold">Web Browser</tspan><tspan
         sodipodi:role="line"
         x="192.29788"
         y="185.87708"
         style="font-size:48px;font-weight:bold;-inkscape-font-specification:Andale Mono Bold"
         id="tspan3884" /></text>
    <path
       style="fill:none;stroke:#000000;stroke-width:1px;stroke-linecap:butt;stroke-linejoin:miter;stroke-opacity:1"
       d="m 255.2969,141.41643 c -0.0711,0.71824 0.14224,1.46464 0,2.17583 -0.14993,0.74966 -0.61716,1.419 -0.72528,2.17582 -0.13676,0.95732 0,1.93407 0,2.90111 0,0.72527 0,1.45055 0,2.17582 0,0.72528 0.11924,1.46042 0,2.17583 -0.12568,0.7541 -0.57534,1.42616 -0.72527,2.17582 -0.18965,0.94826 0,1.93407 0,2.9011 0,1.69231 0,3.38462 0,5.07693 0,0.72528 -0.14224,1.46464 0,2.17583 0.83339,4.16696 0.72527,-0.20816 0.72527,2.17582 0,0.24176 0.0764,0.49593 0,0.72528 -0.17095,0.51284 -0.55432,0.9377 -0.72527,1.45055 -0.0764,0.22935 0,0.48352 0,0.72527 0,1.2088 0,2.41759 0,3.62638 0,0.17235 0.0813,2.73854 0,2.9011 -0.60025,1.2005 -1.38561,0.19483 -0.72528,2.17583 0.10812,0.32435 0.61716,0.40092 0.72528,0.72527 0.1529,0.45871 0,0.96704 0,1.45055 0,1.20879 0,2.41759 0,3.62638 0,0.48352 -0.0948,0.97642 0,1.45055 0.14993,0.74966 0.53985,1.43414 0.72527,2.17583 0.0586,0.23454 0,0.48351 0,0.72527 0,0.48352 0,0.96703 0,1.45055 0,1.45055 0,2.9011 0,4.35165 0,0.72528 -0.32435,1.52712 0,2.17583 0.10812,0.21623 0.61716,-0.21624 0.72528,0 0.21623,0.43247 -0.1529,0.99184 0,1.45055 0.21623,0.64871 1.14475,0.83894 1.45055,1.45055 0.11025,0.22051 0,2.40028 0,2.9011 0,2.17583 0,4.35165 0,6.52748"
       id="path3886" />
    <path
       style="fill:none;stroke:#000000;stroke-width:1px;stroke-linecap:butt;stroke-linejoin:miter;stroke-opacity:1"
       d="m 237.16502,193.63625 c 0.48351,0.48352 1.07124,0.8816 1.45055,1.45055 0.1341,0.20116 -0.13411,0.52412 0,0.72528 0.3793,0.56895 0.96703,0.96703 1.45055,1.45055 0.72527,0.72527 1.45055,1.45055 2.17582,2.17582 0.24176,0.24176 0.53563,0.4408 0.72528,0.72528 0.29986,0.4498 0.42541,1.00075 0.72527,1.45055 1.10644,1.65965 0.57411,-0.45351 1.45055,2.17583 0.21759,0.65274 -0.21758,1.52307 0,2.17582 0.10812,0.32436 0.57238,0.41947 0.72528,0.72528 0.21623,0.43247 -0.3419,1.10865 0,1.45055 0.38225,0.38225 1.00075,0.42541 1.45055,0.72527 0.28448,0.18965 0.41947,0.57238 0.72528,0.72528 0.21623,0.10812 0.55432,-0.17095 0.72527,0 0.17095,0.17095 -0.21623,0.61716 0,0.72527 0.43247,0.21624 1.01808,-0.21623 1.45055,0 0.21624,0.10812 -0.10812,0.50904 0,0.72528 0.1529,0.3058 0.48352,0.48352 0.72528,0.72527 0.24175,0.24176 0.41947,0.57238 0.72527,0.72528 0.43247,0.21623 1.10865,-0.3419 1.45055,0 0.17095,0.17095 -0.17095,0.55433 0,0.72527 0.17095,0.17095 0.55433,-0.17094 0.72528,0 0.17095,0.17095 -0.17095,0.55433 0,0.72528 0.17095,0.17095 0.55432,-0.17095 0.72527,0 0.43345,0.43345 -0.78393,1.45055 0.72528,1.45055 0.24176,0 -0.17095,-0.55433 0,-0.72527 0.17095,-0.17095 0.48352,0 0.72527,0 0,-0.24176 -0.10811,-0.50904 0,-0.72528 1.50921,-3.01842 -0.0501,0.77535 1.45055,-0.72528 0.38226,-0.38225 0.34303,-1.06829 0.72528,-1.45055 0.38225,-0.38225 1.00075,-0.42541 1.45055,-0.72527 0.28448,-0.18965 0.48352,-0.48352 0.72528,-0.72528 0.24175,-0.24175 0.53562,-0.4408 0.72527,-0.72527 0.29986,-0.4498 0.42541,-1.00076 0.72528,-1.45055 0.3793,-0.56895 1.14474,-0.83895 1.45055,-1.45055 0.10811,-0.21624 -0.17095,-0.55433 0,-0.72528 0.17095,-0.17095 0.50904,0.10812 0.72527,0 0.61161,-0.3058 0.83895,-1.14475 1.45055,-1.45055 0.21624,-0.10812 0.50904,0.10812 0.72528,0 0.3058,-0.1529 0.41947,-0.57237 0.72527,-0.72527 1.2839,-0.64195 0.24784,1.0788 1.45055,-0.72528 0.29987,-0.4498 0.42541,-1.00075 0.72528,-1.45055 0.3793,-0.56895 1.14475,-0.83894 1.45055,-1.45055 0.21623,-0.43247 -0.3419,-1.10865 0,-1.45055 0.17095,-0.17095 0.55433,0.17095 0.72527,0 0.17095,-0.17095 -0.10811,-0.50904 0,-0.72528 0.30581,-0.6116 1.14475,-0.83894 1.45055,-1.45055 0.10812,-0.21623 -0.17094,-0.55432 0,-0.72527 0.17095,-0.17095 0.55433,0.17095 0.72528,0 0.3419,-0.3419 -0.3419,-1.10865 0,-1.45055 0.17095,-0.17095 0.52412,0.1341 0.72528,0 0.85342,-0.56896 1.45055,-1.45055 2.17582,-2.17583"
       id="path3888" />
  </g>
</svg>
